<svg xmlns="http://www.w3.org/2000/svg" width="500" height="500" fill="none"><path fill="#000" fill-opacity=".15" d="m350.683 236.017-.005-.015c1.02-.415 2.208-.292 3.327-.288a4.364 4.364 0 0 0 2.835-.796c1.497-.009 2.805 1.118 3.446 2.447.556 1.373.839 2.838.836 4.316a1024.3 1024.3 0 0 1 .557 114.006l.129.703a54.01 54.01 0 0 1-7.087.767c-2.247.093-4.585.088-6.903.181a40.049 40.049 0 0 0-5.793.58l-.025-.132c.71-35.388 1.422-70.774 2.138-106.158.06-2.979.125-6.006 1.025-8.848.9-2.843 2.76-5.532 5.52-6.763Z"/><path stroke="#fff" stroke-linecap="round" stroke-linejoin="round" d="M357.31 242.918a556.096 556.096 0 0 1-1.31 101"/><path fill="#000" d="M146.251 217.958c2.655 2.744 2.776 6.911 2.745 10.673-.297 33.233-.59 66.464-.881 99.691l-.02.596A99.017 99.017 0 0 1 133 327.304l.126-.601c.091-26.077.182-52.155.276-78.232.036-9.827.101-19.838 3.22-29.188l.126-.176c1.264.787 2.991.753 4.544.656 1.425-.093 2.957-.226 4.029-1.14.239-.206.448-.443.619-.705l.311.04Z"/><path stroke="#fff" stroke-linecap="round" stroke-linejoin="round" d="m147 225.918-2 91"/><path fill="#000" fill-opacity=".15" d="M168.065 329.893a15.205 15.205 0 0 1 4.173 2.104 16.068 16.068 0 0 1 5.585 7.782c1.656 4.529 1.997 9.847 2.128 14.741.131 5.186.165 10.738-2.194 15.262a13.608 13.608 0 0 1-1.042 1.709c-4.597 6.453-13.63 7.665-21.548 7.392-14.409-.501-28.54-4.004-42.423-7.893-13.517-3.79-27.18-8.085-38.639-16.193-12.884-9.116-22.287-22.746-27.332-37.702-5.045-14.955-5.87-31.16-3.51-46.764 1.879-12.428 5.823-24.709 12.908-35.087 7.086-10.378 17.515-18.744 29.66-21.963 2.61-.691 5.464-1.247 7.296-3.233 1.076-1.169 1.66-2.708 2.668-3.935a8.582 8.582 0 0 1 2.81-2.195 128.685 128.685 0 0 0 35.361 8.12l.59-.107a45.5 45.5 0 0 0 .768 4.066 5.866 5.866 0 0 0 1.29 2.844c.164.163.343.31.536.439l-.122.175c-3.017 9.306-3.077 19.275-3.112 29.058-.087 25.961-.176 51.922-.268 77.883l-.121.599a93.234 93.234 0 0 0 14.591 1.607c1.997.073 3.988.092 5.98.073 4.671-.048 9.638-.218 13.967 1.218Z"/><path stroke="#fff" stroke-linecap="round" stroke-linejoin="round" d="M104.778 252.918c-13.955 11.23-20.116 30.897-14.988 47.836 5.129 16.94 21.249 30.164 39.21 32.164"/><path fill="#000" d="M343.07 172.237a27.54 27.54 0 0 1 4.189 1.753 41.422 41.422 0 0 0 6.857 2.527 40.116 40.116 0 0 0 12.111 1.489c3.847-.173 7.512-2.084 11.08-3.333a19.134 19.134 0 0 1 6.505-1.245c1.302 0 2.591.261 3.789.769 2.837 1.234 4.821 3.972 5.707 6.931.885 2.959.804 6.12.404 9.18-.77 5.941-2.865 12.003-7.343 15.999a21.646 21.646 0 0 1-6.366 3.824 41.546 41.546 0 0 1-6.491 1.94 79.178 79.178 0 0 1-12.938 1.724c-2.519.13-5.042.154-7.56.087a56.143 56.143 0 0 1-3.038-.162 28.049 28.049 0 0 1-5.937-1.096 13.936 13.936 0 0 1-6.279-3.77c-3.101-3.367-3.906-8.199-4.358-12.748-.66-6.648-.814-13.636 1.983-19.708.776-1.678 1.874-3.348 3.574-4.078a6.067 6.067 0 0 1 4.111-.083Zm36.548 14.442c0-3.674-4.763-6.655-10.642-6.655s-10.642 2.976-10.642 6.655c0 3.68 4.763 6.653 10.642 6.653 5.88 0 10.642-2.978 10.642-6.653Zm-36.106-73.584a44.38 44.38 0 0 1 12.951 11.313 16.162 16.162 0 0 1-2.593-6.102 16.23 16.23 0 0 1 .069-6.639c.327-1.468 1.522-3.209 2.898-2.637.515.282.931.72 1.187 1.252l9.69 15.77c1.178-1.35 1.406-3.263 2.129-4.902.724-1.638 2.53-3.164 4.143-2.411 1.018.48 1.493 1.677 1.648 2.803.155 1.125.082 2.293.445 3.365.882 2.589 3.876 3.697 6.546 4.192 2.671.494 5.641.836 7.462 2.865 1.289 1.428 1.725 3.416 2.117 5.307 1.929 9.361 3.861 18.723 5.796 28.084a2522.575 2522.575 0 0 0-5.689-4.201c.097 1.653 1.41 2.93 2.229 4.368.819 1.438.863 3.742-.688 4.289-.887.318-1.841-.131-2.674-.572-2.011-1.056-4.02-2.113-6.028-3.17l-.136-.019a97.116 97.116 0 0 0 1.124-14.209c.024-3.052-.15-6.295-1.865-8.808-2.146-3.131-6.134-4.324-9.855-4.912-8.053-1.271-16.321-.709-24.349-2.127a39.37 39.37 0 0 1-3.198-.704c-6.938-1.835-13.552-5.684-16.593-12.126a1.665 1.665 0 0 1-.155-1.555c.319-.523 1.056-.548 1.667-.496a37.224 37.224 0 0 1 11.623 2.954 18.57 18.57 0 0 1-3.571-8.33c-.179-1.149-.116-2.589.902-3.14.864-.461 1.915.008 2.768.498Z"/><path fill="#000" fill-opacity=".15" d="M350.829 225.881a2.124 2.124 0 0 1-1.24-.487c-.615-.565-.615-1.494-.574-2.312.152-2.979.306-5.958.463-8.938l.022-.226c1.105.091 2.204.141 3.287.17 2.726.07 5.456.045 8.182-.09l.031.496c-.006 2.774-.009 5.547-.011 8.32-.005.838-.041 1.771-.656 2.368a2.972 2.972 0 0 1-1.986.637c-.156.01-.307.015-.458.015-2.038.025-4.081.056-6.118.08-.314.012-.63 0-.942-.033Zm6.701.052a6.9 6.9 0 0 0 .45-.015l.02.347c-.148 2.02-.295 4.04-.439 6.062a3.906 3.906 0 0 1-.476 1.913c-.116.178-.26.337-.428.473a4.573 4.573 0 0 1-2.912.795c-1.151-.004-2.371-.126-3.418.288-.092.034-.179.078-.271.122a48.026 48.026 0 0 1 .552-9.941c.307.033.616.044.924.034 2.001-.024 4.001-.054 5.998-.078Zm-85.511-44.341c2.795 3.618 3.124 8.549 2.938 13.124-.9 22.164-11.247 43.359-26.401 59.509-10.693 11.405-24.114 20.68-39.313 24.226-15.198 3.546-32.249.757-44.163-9.355l-.807.074a1501.68 1501.68 0 0 0-6.417-58.469 921.956 921.956 0 0 0-.856-6.469l.063-.01c3.167 9.35 7.876 18.381 15.052 25.129 7.175 6.747 17.08 10.994 26.854 9.862 10.702-1.236 19.936-8.7 25.703-17.83 5.767-9.13 8.549-19.812 10.732-30.397.807-3.9 1.668-8.065 4.456-10.897 1.887-1.925 4.359-2.944 7.015-3.491a38.785 38.785 0 0 1 6.791-.654c4.553-.117 9.564.103 13.578 1.948 1.87.822 3.51 2.093 4.775 3.7Z"/><path fill="#000" d="M170.808 124.776c2.396 2.67.906 7.317-2.04 9.338-2.945 2.021-6.712 2.161-10.266 2.228l-.786.015c-9.609.186-19.22.375-28.833.565-3.076.059-6.47.25-8.664 2.448-2.464 2.469-2.43 6.457-2.295 9.977.332 8.596.282 17.193-.15 25.791l-.101-.005c-2.739-.029-3.375 4.062-6.041 4.709-1.785.432-3.65-1.023-4.123-2.826-.472-1.802.213-3.766 1.35-5.231 1.138-1.466 2.681-2.537 4.2-3.585-2.02-.393-3.838 1.146-5.656 2.119-1.817.974-4.691 1.028-5.304-.973-.467-1.539.811-2.992 1.837-4.219a18.124 18.124 0 0 0 4.02-9.417c.737-6.304-1.775-13.153 1.051-18.808 2.237-4.475 7.278-6.801 12.155-7.46 4.876-.659 9.831.01 14.749-.166 4.918-.176 10.13-1.391 13.515-5.03 1.774-1.903 3.158-4.519 5.649-5.178a4.31 4.31 0 0 1 2.746.166 4.411 4.411 0 0 1 2.111 1.8 4.545 4.545 0 0 1-.422 5.312c-.419.344-.829.698-1.239 1.052.478-.262.899-.62 1.239-1.052a15.157 15.157 0 0 1 4.692-2.863c2.252-.757 5.004-.486 6.606 1.293Z"/><path fill="#000" fill-opacity=".15" d="M163.773 269.192A1487.267 1487.267 0 0 1 168 329.918c-4.325-1.435-9.286-1.265-13.951-1.221-1.989.02-3.978 0-5.972-.073l.019-.593c.282-33.054.566-66.11.851-99.167.029-3.742-.087-7.888-2.651-10.618l-.296-.039c.72-1.109.836-2.603.89-3.966.024-.651.048-1.269.073-1.868h.034a34.286 34.286 0 0 0 10-1.406l.36-.049a1495.9 1495.9 0 0 1 6.416 58.274Z"/><path fill="#000" fill-opacity=".15" d="M147 211.917c.131-3.588.225-6.399.281-10.313l.098-.686c2.901.514 5.778 1.144 8.632 1.89l.053-.005.112.932c.281 2.227.556 4.452.824 6.676l-.347.05a30.777 30.777 0 0 1-9.619 1.456H147Z"/><path fill="#000" d="m147 201.371-.1.669c-.056 3.825-.152 6.569-.285 10.073l-.071 1.889c-.053 1.378-.166 2.888-.868 4.01a3.38 3.38 0 0 1-.584.709c-1.011.92-2.454 1.053-3.797 1.147-1.463.098-3.09.132-4.282-.66a3.547 3.547 0 0 1-.522-.443 6.034 6.034 0 0 1-1.258-2.874 48.794 48.794 0 0 1-.749-4.109 50.04 50.04 0 0 1-.261-11.667l.01-.197A116.327 116.327 0 0 1 147 201.371Z"/><path fill="#000" fill-opacity=".15" d="m134 211.812-.59.106A129.338 129.338 0 0 1 98 203.823a21.475 21.475 0 0 1 5.613-1.695 119.795 119.795 0 0 1 11.313-1.632 124.181 124.181 0 0 1 18.817-.388l-.01.194a47.369 47.369 0 0 0 .267 11.51Z"/><path fill="#000" d="m133 175.791-.186.389c-3.393 1.194-5.541 4.82-4.639 8.408l-.072.33a5.528 5.528 0 0 1-1.494-.587 7.665 7.665 0 0 1-2.534-2.634 7.974 7.974 0 0 1-1.064-3.548 11.836 11.836 0 0 1 1.976-7.096c.826-1.298 2.286-2.581 3.675-1.984 1.274.548 1.517 2.25 1.995 3.593a6.793 6.793 0 0 0 2.343 3.129Z"/><path stroke="#000" stroke-linecap="round" stroke-linejoin="round" d="M137 169.204c.766 1.185 2.756.783 3.542-.381.785-1.165.732-2.694.645-4.1l-.923-15.066c-.082-1.281-.149-2.614.372-3.786.717-1.6 2.428-2.567 4.153-2.843 1.725-.275 3.484.019 5.211.315m-16 .219c-.359-.528-.89-.962-1.533-1.251a4.578 4.578 0 0 0-2.103-.387 4.438 4.438 0 0 0-2.029.598c-.596.352-1.058.836-1.335 1.396m5 10v-4m16 5v-5m-9 27.029a7.158 7.158 0 0 1-5.686-1.234 6.754 6.754 0 0 1-2.417-3.093c-.492-1.328-.743-3.011-2.057-3.553-1.433-.59-2.939.679-3.791 1.962a11.356 11.356 0 0 0-2.038 7.016 7.65 7.65 0 0 0 1.098 3.509 7.728 7.728 0 0 0 2.614 2.605 5.846 5.846 0 0 0 1.541.581c.943.24 1.934.238 2.876-.007a5.733 5.733 0 0 0 2.509-1.394"/><path stroke="#000" stroke-linecap="round" stroke-linejoin="round" d="M128.213 183.918c-.931-3.413 1.285-6.864 4.787-8m9.094 24c-.117-2.791-.234-5.621.374-8.344.609-2.722 2.036-5.382 4.393-6.868 2.712-1.701 6.486-1.817 8.41-4.385 1.061-1.412 1.29-3.265 1.465-5.03a253.572 253.572 0 0 0 .926-38.373m2.246-10.572a4.508 4.508 0 0 0 1.077-2.586 4.516 4.516 0 0 0-.652-2.727 4.44 4.44 0 0 0-2.126-1.799 4.368 4.368 0 0 0-2.765-.166c-2.51.659-3.903 3.275-5.688 5.178-3.408 3.638-8.656 4.853-13.609 5.03-4.952.177-9.937-.491-14.851.166-4.913.658-9.986 2.985-12.239 7.459-2.844 5.655-.315 12.505-1.058 18.808a18.06 18.06 0 0 1-4.047 9.417c-1.034 1.229-2.321 2.68-1.85 4.219.617 2.001 3.505 1.952 5.341.974 1.835-.979 3.66-2.513 5.694-2.12-1.531 1.048-3.087 2.115-4.228 3.585-1.141 1.47-1.831 3.422-1.36 5.232.471 1.809 2.355 3.26 4.151 2.825 2.685-.65 3.326-4.74 6.083-4.709"/><path stroke="#000" stroke-linecap="round" stroke-linejoin="round" d="M160 125.918c-.339.327-.67.664-1 1 .386-.249.726-.59 1-1Z"/><path stroke="#000" stroke-linecap="round" stroke-linejoin="round" d="M115 198.918a284.973 284.973 0 0 0 2.273-24.305c.433-8.531.483-17.069.15-25.614-.136-3.496-.17-7.456 2.317-9.908 2.214-2.183 5.639-2.374 8.744-2.432 9.704-.19 19.404-.378 29.101-.562l.793-.014c3.586-.069 7.392-.206 10.361-2.213 2.969-2.006 4.477-6.622 2.059-9.273-1.617-1.768-4.395-2.036-6.668-1.285a15.354 15.354 0 0 0-4.735 2.843m-46.14 127.177a37.224 37.224 0 0 0-18.001 22.64 37.267 37.267 0 0 0 3.628 28.702c5.274 9.11 14.307 15.663 24.163 19.356a66.491 66.491 0 0 0 10.483 2.938 93.234 93.234 0 0 0 14.592 1.607c1.997.073 3.988.093 5.979.073 4.67-.044 9.637-.214 13.966 1.223a15.208 15.208 0 0 1 4.173 2.105 16.072 16.072 0 0 1 5.585 7.785c1.656 4.531 1.997 9.851 2.128 14.748.131 5.188.165 10.743-2.194 15.268a13.632 13.632 0 0 1-1.042 1.711c-4.597 6.455-13.63 7.668-21.548 7.395-14.409-.501-28.54-4.006-42.423-7.897-13.517-3.791-27.18-8.088-38.638-16.2-12.885-9.12-22.288-22.756-27.333-37.718-5.045-14.962-5.87-31.175-3.51-46.786 1.88-12.433 5.823-24.72 12.908-35.103 7.086-10.382 17.515-18.752 29.66-21.972 2.61-.692 5.464-1.248 7.296-3.235 1.076-1.169 1.66-2.709 2.668-3.937a8.57 8.57 0 0 1 2.81-2.195 21.392 21.392 0 0 1 5.603-1.705c3.74-.726 7.506-1.272 11.297-1.637a123.465 123.465 0 0 1 18.792-.39c2.693.151 5.376.389 8.049.717a121.232 121.232 0 0 1 14.031 2.548"/><path stroke="#000" stroke-linecap="round" stroke-linejoin="round" d="m156 202.918.015.098.12.903c.301 2.156.596 4.311.883 6.465a1455.878 1455.878 0 0 1 6.614 58.435 1448.802 1448.802 0 0 1 4.358 60.894c.005.069.005.137.01.205m-11-125.696c3.169 9.35 7.881 18.381 15.06 25.128 7.18 6.748 17.09 10.995 26.869 9.862 10.709-1.235 19.948-8.7 25.718-17.829 5.77-9.13 8.554-19.812 10.738-30.397.808-3.9 1.669-8.065 4.458-10.897 1.889-1.925 4.362-2.944 7.019-3.491a38.84 38.84 0 0 1 6.795-.654c4.556-.117 9.569.103 13.586 1.948a12.469 12.469 0 0 1 4.775 3.701c2.796 3.618 3.125 8.548 2.939 13.123-.9 22.165-11.253 43.359-26.416 59.509-10.699 11.405-24.127 20.68-39.335 24.226-15.207 3.546-32.267.757-44.188-9.354"/><path stroke="#000" stroke-linecap="round" stroke-linejoin="round" d="M246.543 176.071c-6.828-5.06-18.454-16.305-16.276-19.357 1.257-1.76 7.428 1.537 10.618 3.596a23.053 23.053 0 0 1 7.666 8.203c-3.017-12.976-9.838-39.578-4.587-39.578 5.335-.722 8.463 21.71 11.102 33.041-1.223-10.731-3.67-32.297.01-32.297 5.321-.746 4.165 21.956 5.923 34.95 1.15-8.845 2.142-34.058 5.644-34.876 3.502-.818 5.139 32.007.514 48.165m43.016 147.652a159.736 159.736 0 0 1-38.312 38.296c-.11.083-.225.161-.337.24-4.252 2.978-9.384 5.879-14.37 4.426-3.724-1.086-6.349-4.348-8.504-7.577a66.325 66.325 0 0 1-1.803-2.861c-2.923-4.931-5.098-10.37-4.824-16.035a22.435 22.435 0 0 1 3.382-10.536 39.367 39.367 0 0 1 8.822-9.826 57.672 57.672 0 0 1 3.518-2.666c7.884-5.528 16.837-9.763 23.372-16.841 7.057-7.645 10.591-17.853 13.298-27.905 2.708-10.052 4.829-20.407 9.755-29.578 4.927-9.171 13.309-17.192 23.616-18.597 4.134-.562 8.534-.078 12.311-1.849 3.777-1.771 6.676-8.491 3.627-11.343m36.618-3c-1.93 2.193-.599 6.687 1.679 8.526 2.278 1.839 5.293 2.379 8.141 3.061 25.64 6.117 45.099 27.682 56.731 51.317 7.532 15.307 12.541 32.376 10.738 49.339-2.572 24.214-19.109 45.514-40.021 58.018-20.731 12.391-45.292 17.021-69.45 17.694-.221.01-.437.015-.657.02-5.161.132-10.891-.123-14.588-3.724a11.894 11.894 0 0 1-3.094-5.391c-.972-3.385-.893-7.27-.702-10.856.231-4.376.609-9.089 2.519-12.901a13.041 13.041 0 0 1 2.73-3.733c2.18-2.051 4.871-3.106 7.792-3.655 1.89-.335 3.802-.53 5.721-.583 2.288-.094 4.596-.089 6.815-.182a52.193 52.193 0 0 0 6.997-.771 54.892 54.892 0 0 0 36.152-23.338 54.804 54.804 0 0 0 8.181-42.219"/><path stroke="#000" stroke-linecap="round" stroke-linejoin="round" d="M297.675 378.918c-8.867.951-16.979 2.224-16.667 4.55.572 4.259 21.075 1.746 32.089-.515l-25.006 5.307a7.415 7.415 0 0 0-3.121 1.183c-.865.693-1.34 1.967-.746 2.885.557.866 1.76 1.069 2.819 1.172 14.046 1.385 29.62-.752 42.957-5.189m-32-9.393a51.169 51.169 0 0 0 14-2c-3.99.648-9.116 1.249-14 2Zm14-10c-11.885.077-30.899 3.726-29.967 8.221 0 2.462 10.25 1.657 15.444 1.641M312 368.918h3-3Zm20-4.117c-7.741-.703-15.035-2.052-22.77-2.754-.649-.058-1.302-.117-1.956-.124a7.288 7.288 0 0 0-2.669.407c-1.461.559-2.734 2.01-2.595 3.633 0 2.044 6.712 2.696 10.301 2.955"/><path stroke="#000" stroke-linecap="round" stroke-linejoin="round" d="M322 252.918a671.315 671.315 0 0 0-15 109m60.645-186A6027.3 6027.3 0 0 1 361 174.57a150.286 150.286 0 0 1 4.833-27.652c4.722.57 9.444 1.137 14.167 1.704m-19-1.704c-3.271-1.223-6.697-1.325-10-.299m18 46.299c6.075 0 11-2.91 11-6.5 0-3.589-4.925-6.5-11-6.5-6.076 0-11 2.911-11 6.5 0 3.59 4.924 6.5 11 6.5Z"/><path stroke="#000" stroke-linecap="round" stroke-linejoin="round" d="M383.811 173.429a19.157 19.157 0 0 0-6.505 1.244c-3.568 1.249-7.233 3.16-11.08 3.333a40.113 40.113 0 0 1-12.11-1.489 41.418 41.418 0 0 1-6.857-2.526 27.471 27.471 0 0 0-4.188-1.753 6.073 6.073 0 0 0-4.113.081c-1.7.73-2.797 2.402-3.573 4.078-2.797 6.072-2.643 13.061-1.983 19.709.453 4.548 1.257 9.381 4.358 12.748a13.938 13.938 0 0 0 6.278 3.77c1.933.578 3.924.946 5.937 1.096 1.021.086 2.037.134 3.038.162 2.518.067 5.041.043 7.56-.087a79.193 79.193 0 0 0 12.938-1.724 41.474 41.474 0 0 0 6.491-1.941 21.595 21.595 0 0 0 6.365-3.823c4.478-3.996 6.573-10.058 7.343-16 .4-3.06.488-6.223-.405-9.179-.893-2.957-2.869-5.697-5.706-6.932a9.685 9.685 0 0 0-3.788-.767Zm-.011-.511c.475-2.225.882-4.421 1.211-6.608a98.116 98.116 0 0 0 1.125-14.273c.024-3.065-.15-6.323-1.866-8.848-2.146-3.145-6.134-4.344-9.855-4.934-8.052-1.277-16.32-.712-24.347-2.137a38.974 38.974 0 0 1-3.198-.707c-6.937-1.843-13.551-5.709-16.592-12.18a1.688 1.688 0 0 1-.155-1.563c.319-.525 1.056-.55 1.666-.498a37.168 37.168 0 0 1 11.624 2.967 18.69 18.69 0 0 1-3.571-8.367c-.179-1.154-.116-2.601.901-3.155.867-.466 1.919.005 2.772.499a44.445 44.445 0 0 1 12.95 11.364 16.268 16.268 0 0 1-2.593-6.129 16.38 16.38 0 0 1 .069-6.67c.328-1.474 1.522-3.223 2.898-2.649.515.284.93.724 1.187 1.259l9.69 15.84c1.177-1.356 1.405-3.277 2.129-4.923.723-1.646 2.529-3.179 4.142-2.422 1.018.481 1.493 1.684 1.648 2.815.155 1.13.082 2.304.445 3.38.882 2.601 3.875 3.714 6.546 4.211 2.671.496 5.64.84 7.462 2.878 1.289 1.435 1.724 3.432 2.117 5.331 1.928 9.403 3.86 18.807 5.795 28.211-1.895-1.41-3.791-2.817-5.688-4.22.096 1.66 1.41 2.943 2.228 4.387.819 1.445.863 3.759-.687 4.309-.887.32-1.842-.132-2.675-.574l-6.027-3.185"/><path stroke="#000" stroke-linecap="round" stroke-linejoin="round" d="M347 135.918a282.815 282.815 0 0 0-3.995 35.904c0 .033-.005.062-.005.096m21 13.119c1.35.999 2.731 2.022 4.375 2.551 1.645.529 3.64.475 4.97-.543a6.844 6.844 0 0 0 1.655-2.127M178 339.421c7.12-4.033 14.352-8.103 22.339-10.181 7.69-1.999 16.294-1.952 23.258 1.683.268.14.536.288.799.437 1.017.581 2.049 1.309 2.443 2.38.696 1.886-.973 3.942-2.954 4.58-1.981.637-4.142.283-6.22.055a49.764 49.764 0 0 0-18.879 1.543"/><path stroke="#000" stroke-linecap="round" stroke-linejoin="round" d="M209.364 338.918c-7.238 3.863-12.614 10.373-14.95 18.103-.427 1.458-.716 3.13.129 4.404.811 1.219 2.491 1.676 3.963 1.429a9.28 9.28 0 0 0 3.947-1.971 29.665 29.665 0 0 0 6.122-6.267c1.387-1.92 2.7-4.141 4.947-4.982 1.73-.647 3.659-.329 5.509-.219a24.008 24.008 0 0 0 12.479-2.697 22.183 22.183 0 0 0 3.49-2.236m-11-14.133c6.907-2.085 14.186-1.888 21 .569"/><path stroke="#000" stroke-linecap="round" stroke-linejoin="round" d="M231.632 347.215c1.127-.034 2.293-.537 3.346-.153.54.168 1.018.482 1.376.906.359.423.583.938.645 1.481.045 1.667-1.843 2.695-3.469 3.258a58.796 58.796 0 0 1-20.53 3.196m20.672-2.964c.965.123 1.956-.239 2.813.221.438.21.811.534 1.078.936.267.403.418.87.437 1.351a3.152 3.152 0 0 1-.748 1.724 10.298 10.298 0 0 1-2.986 2.595 22.759 22.759 0 0 1-4.145 1.881A56.365 56.365 0 0 1 210 364.906c.193-.005.39-.005.584-.01"/><path stroke="#000" stroke-linecap="round" stroke-linejoin="round" d="M213 369.918c3.807-.389 14.401-1.727 17.882-3.265 1.424-.63 2.882-1.418 3.663-2.728a3.363 3.363 0 0 0 .413-2.214 2.343 2.343 0 0 0-.386-1.034 2.442 2.442 0 0 0-.822-.759m1.25 2a27.398 27.398 0 0 0 12-4m-69 12h12m1-.438a11.36 11.36 0 0 1 4.946-4.217c.787-.339 1.774-.56 2.439-.014.616.506.645 1.431.601 2.233a23.858 23.858 0 0 1-.19 1.957 12.82 12.82 0 0 1-.597 2.586c-.111.326-.24.646-.385.959a6.825 6.825 0 0 1-4.008 3.738 4.625 4.625 0 0 1-4.164-.772c-1.226-1.003-.4-2.449.049-3.782.32-.949.76-1.852 1.309-2.688Z"/><path stroke="#000" stroke-linecap="round" stroke-linejoin="round" d="M197.469 372.061c-.21 1.203-.856 3.255-.142 4.226.252.288.609.48 1.003.54 1.864.4 4.32-.562 5.49-1.965.208-.252.4-.516.572-.79a13.004 13.004 0 0 0 1.511-4.122c.015-.063.03-.126.04-.194a3.49 3.49 0 0 0-.13-1.752 3.697 3.697 0 0 0-.976-1.503c-2.24-1.861-5.611 1.18-6.643 2.932a3.248 3.248 0 0 0-.128.241 7.022 7.022 0 0 0-.562 2.192c-.01.063-.02.127-.035.195Zm7.181 2.183c-.045.108-.089.212-.129.317a5.648 5.648 0 0 0-.521 2.209c-.01.44.116.873.363 1.242.246.369.602.658 1.021.827.793.246 1.651-.12 2.361-.548a11.672 11.672 0 0 0 4.885-5.909 5.388 5.388 0 0 0 .362-1.669 2.653 2.653 0 0 0-.317-1.472 2.968 2.968 0 0 0-1.396-1.116 3.062 3.062 0 0 0-1.804-.126 5.068 5.068 0 0 0-2.916 2.06m-72.334-170.141a50.595 50.595 0 0 0 .263 11.783 47.9 47.9 0 0 0 .755 4.15 6.08 6.08 0 0 0 1.267 2.902c.161.168.337.318.527.448 1.2.8 2.841.765 4.314.666 1.354-.094 2.808-.229 3.826-1.158.227-.209.425-.45.589-.716.708-1.133.823-2.658.875-4.05.024-.666.048-1.297.072-1.908.134-3.539.23-6.312.287-10.173"/><path stroke="#000" stroke-linecap="round" stroke-linejoin="round" d="M137 218.918c-2.678 9.398-2.732 19.466-2.763 29.346-.077 26.218-.156 52.437-.237 78.654m12-109c2.897 2.736 3.029 6.89 2.996 10.639-.324 33.124-.645 66.244-.962 99.361m201.444-114c-.156 3.037-.31 6.073-.463 9.109-.041.833-.041 1.779.574 2.356.346.295.782.469 1.239.496.314.034.628.046.944.036 2.037-.026 4.079-.058 6.117-.082.151 0 .302-.005.459-.015a2.927 2.927 0 0 0 1.984-.65c.615-.608.652-1.558.657-2.412 0-2.826.004-5.653.011-8.479m-10.387 11.641a.204.204 0 0 0-.005.049 48.126 48.126 0 0 0-.552 9.951c.092-.044.179-.088.271-.122 1.047-.415 2.268-.293 3.418-.288a4.568 4.568 0 0 0 2.912-.796 2.01 2.01 0 0 0 .428-.474 3.91 3.91 0 0 0 .476-1.915c.148-2.022.294-4.045.439-6.067m-7 9.662c-.005 0-.005.005-.011.005-2.857 1.223-4.777 3.896-5.715 6.72-.937 2.824-.998 5.832-1.06 8.792-.735 35.163-1.473 70.324-2.214 105.483m15-122h.01c1.455-.009 2.727 1.111 3.351 2.431.54 1.365.816 2.82.813 4.289a1040.009 1040.009 0 0 1 .541 113.28m11.285-96c2.283.396 4.575.756 6.874 1.08 2.254.325 4.513.611 6.772.863 4.113.46 8.23.813 12.354 1.057"/><path stroke="#000" stroke-linecap="round" stroke-linejoin="round" d="M372.182 258.918a95.619 95.619 0 0 0 .961 20.64c.385 2.476.942 5.087 2.663 6.897 1.485 1.562 3.664 2.303 5.81 2.452 2.148.063 4.296-.14 6.396-.607 3.082-.551 6.539-1.352 8.142-4.068.823-1.392.996-3.063 1.149-4.674.567-5.884 1.132-11.769 1.697-17.656"/><path stroke="#000" stroke-linecap="round" stroke-linejoin="round" d="M386.804 260.537c.23-1.867.438-3.862-.493-5.538-.931-1.676-3.461-2.739-5.109-1.617-1.145.784-1.406 2.234-1.551 3.538a92.946 92.946 0 0 0-.301 3.102 102.826 102.826 0 0 0-.005 16.896m-125.344 45c-.097 15.482 6.517 29.942 17.999 41m75.69-6a114.91 114.91 0 0 0 .299 40.926c0 .025.004.05.011.074m-250-194c.165.062.337.127.503.184A133.81 133.81 0 0 0 134 211.918m13 0a47.466 47.466 0 0 0 10-1m201-55c-.24-.584-.593-1.077-1.023-1.428a2.434 2.434 0 0 0-1.428-.569 2.35 2.35 0 0 0-1.455.44c-.447.312-.825.771-1.094 1.334m15 1.049a3.604 3.604 0 0 1 1.298-1.362 3.215 3.215 0 0 1 1.748-.462 3.23 3.23 0 0 1 1.723.563c.52.351.944.846 1.231 1.435m81.661 63a50.039 50.039 0 0 0-.931 35.091c3.939 11.431 11.883 21.08 22.39 27.194 5.075 2.953 11.058 5.412 13.622 10.663 2.355 4.825 1.047 10.609-1.013 15.565-1.47 3.534-3.399 7.039-6.495 9.319-3.096 2.279-7.597 3.033-10.82.933-3.223-2.099-4.035-7.423-.991-9.772a4.018 4.018 0 0 1 1.985-.876 4.047 4.047 0 0 1 2.153.279c1.314.655 2.01 2.458 1.219 3.689M427 385.918a27.467 27.467 0 0 0 13.427-4.427A28.183 28.183 0 0 0 450 370.918m-261 20.365c12.279 5.886 28.041 4.526 39-3.365m-25 15 10-2m-16-79c2.71-1.918 5.806-2.953 8.97-2.998 3.163-.045 6.28.901 9.03 2.741M57 363.918c-12.695-2.002-23.2-13.383-24-26m-16-50a25.858 25.858 0 0 1-7-8m-2 10 7-8m4.83-29.994c1.923-4.295 9.306-3.415 10.856 1.031 1.55 4.447-2.43 9.566-7.071 9.937-4.642.37-9.01-3.161-10.663-7.57-1.653-4.408-.989-9.421.733-13.804a30.31 30.31 0 0 1 12.15-14.592c9.263-5.728 22.26-6.994 27.349-16.702 1.868-3.565 2.19-8.161.01-11.541-2.18-3.379-7.165-4.854-10.409-2.509-2.485 1.796-3.374 5.361-2.473 8.313.9 2.952 3.338 5.266 6.141 6.491 6.02 2.629 13.78.082 17.135-5.625 3.477-5.918 2.168-13.354 1.981-20.238-.187-6.884 1.94-15.145 8.43-17.197m24.011-30c-.103-2.204.624-4.377 2.067-6.184 1.445-1.807 3.525-3.147 5.923-3.816m54-21c1.126-3.143 3.209-5.92 6-8m1 7-11-9m27 23 5-4m0 5-4-6m97.643 28c.665-2.95.396-6.006-.776-8.83-1.173-2.824-3.204-5.305-5.867-7.17m13 9-3-6m105-22-1-8m-4 5 7-2m14 22 14-12m-3 11-9-12m39 69-7-8m-1 8c3.749-1.797 6.873-4.573 9-8m-112 79-4-5m33-24a81.716 81.716 0 0 0 12-4m-30 4-2-1m31 20 5-6m26 8-3-4m20 32 6-6m-12 27-4-7m-36 28 4-6m6 20-2-5m-64 24 5-6-.339.393M328 315.918l-4-7m8-19 4-4m-34 5c-1.459-1.01-2.512-2.413-3-4m-1 30 4-7m-22 31-2-6m-10-12a18.435 18.435 0 0 1 5-2m156-3 8-5m-26 26 1-9m25 11v-6m-31 25h7m-36 8 2-6m-18 20 5 1m110-114 2-7"/><path stroke="#000" stroke-linecap="round" stroke-linejoin="round" d="M480 266.874c-2.463.233-4.925-.455-7-1.956m-246 16c6.769-2.334 12.707-6.874 17-13m-136-34.529-6.834-3.471S100 234.083 100 234.777s8-1.388 8-1.388Zm-28.256 42.529L73 279.975l10 3.943-3.256-8Zm-10.744-38-8 3.564 8 5.436v-9Zm54 42-7 2.505 4.549 6.495 2.451-9Zm83.683-27-7.683 10h10l-2.317-10Zm41.317-34 9 .556-3.692 8.444-5.308-9Zm-17.838 11 .838 5-7-1.529 6.162-3.471Zm-65.678 108 3.516 7h-15l11.484-7Zm-53.484 18-5.569-13-6.431 9.98 12 3.02Zm-35-39-6.23 10-2.77-10h9Zm84.361-16-5.361 4.63 7 3.37-1.639-8Z"/><path fill="#000" d="M157.985 134.345c-8.248-1.633-17.12-1.217-25.501-.927-6.858.238-12.383 3.176-12.902 10.617-.275 3.956.122 8.023.197 11.986.086 4.583.013 9.165-.221 13.745a255.14 255.14 0 0 1-2.583 26.624c-.489 3.11 4.137 4.535 4.827 1.331 3.321-15.418 4.891-31.216 3.653-46.984-.233-2.956-1.541-7.796.514-10.365 1.799-2.249 5.446-2.197 8.042-2.275 7.997-.241 16.13.204 23.974-1.563 1.065-.24 1.101-1.972 0-2.189Zm-45.412 63.995c-4.903 1.777-9.521 4.435-14.102 6.922-2.35 1.276-4.71 2.206-6.977 3.652-2.333 1.488-4.664 2.98-6.992 4.475-8.264 5.306-16.608 10.851-22.928 18.485-11.852 14.314-17.915 33.414-18.592 51.83-.65 17.737 3.764 36.199 14.139 50.781 11.125 15.639 27.738 25.8 45.467 32.445a164.03 164.03 0 0 0 70.004 9.693c2.681-.21 4.979-2.138 4.979-4.979 0-2.539-2.283-5.181-4.979-4.979a157.25 157.25 0 0 1-58.095-6.423c-16.48-5.075-32.74-12.911-44.45-25.893-10.842-12.018-16.287-28.199-16.907-44.215-.64-16.53 3.21-33.891 12.23-47.873 5.559-8.614 13.445-14.779 21.8-20.516 4.5-3.09 9.347-5.897 13.345-9.608 4.283-3.975 9.474-6.889 13.765-10.863 1.244-1.152-.045-3.534-1.706-2.932l-.001-.002Zm233.702 15.691c2.265 5.696-5.486 7.981-9.605 8.132-5.519.199-10.897 1.448-15.607 4.448-9.801 6.245-15.17 17.186-18.438 27.957-3.526 11.624-4.84 24.297-11.159 34.89-5.042 8.453-13.312 14.155-21.212 19.696-4.55 3.193-9.116 6.403-13.304 10.065-3.997 3.493-9.374 8.255-10.34 13.697-.692 3.895 3.325 6.054 6.338 3.688 1.985-1.558 3.325-3.749 4.986-5.648a56.396 56.396 0 0 1 5.41-5.345c3.81-3.326 7.988-6.187 12.125-9.082 8.491-5.944 17.04-12.09 22.841-20.859 7.276-11.007 9.064-24.33 12.405-36.807 2.869-10.717 7.64-21.736 18.022-27.082 5.524-2.844 12.724-2.057 17.79-5.875 4.2-3.166 6.394-9.317 2.811-13.657-1.136-1.376-3.73.103-3.062 1.782h-.001Z" opacity=".1"/><path fill="#000" d="M325.938 251.232c-3.589 2.071-3.943 7.755-4.843 11.411-1.115 4.527-1.986 9.119-2.807 13.708-1.616 9.05-2.851 18.184-3.989 27.306a628.08 628.08 0 0 0-4.116 47.811c-.117 2.477-.586 5.188.286 7.541 1.073 2.897 5.822 4.439 7.403.967 1.868-4.101 1.25-9.427 1.489-13.896a627.642 627.642 0 0 1 3.53-40.82c1.064-8.897 2.416-17.744 3.786-26.598.715-4.632 1.489-9.256 2.114-13.9.495-3.688 2.545-9.478.145-12.745a2.247 2.247 0 0 0-3-.787l.002.002Zm8.47 116.241c1.698-.243 3.306-1.088 4.927-1.636a60.169 60.169 0 0 1 6.397-1.721c4.683-1.033 9.534-.943 14.302-1.171a61.966 61.966 0 0 0 25.301-6.532 58.839 58.839 0 0 0 30.711-39.437 61.422 61.422 0 0 0 1.478-15.002c-.147-5.035-.362-11.133-3.596-15.196-1.795-2.257-6.22-1.062-6.684 1.764-.678 4.141.826 8.362 1.023 12.537a51.163 51.163 0 0 1-10.699 34.038 52.202 52.202 0 0 1-18.236 14.376c-7.685 3.701-15.647 4.594-24.051 5.016-5.073.255-10.435.643-15.011 3.049-3.179 1.671-7.327 4.91-7.169 8.92a1.048 1.048 0 0 0 .84 1.005c.154.032.314.028.467-.01Z" opacity=".1"/></svg>