<svg xmlns="http://www.w3.org/2000/svg" width="500" height="500" fill="none"><g clip-path="url(#a)"><mask id="b" width="500" height="500" x="0" y="0" maskUnits="userSpaceOnUse" style="mask-type:luminance"><path fill="#fff" d="M0 0h500v500H0V0Z"/></mask><g mask="url(#b)"><mask id="c" width="462" height="374" x="19" y="63" maskUnits="userSpaceOnUse" style="mask-type:luminance"><path fill="#fff" d="M19.792 63.542h460.416v373.437H19.792V63.542Z"/></mask><g mask="url(#c)"><path fill="#000" fill-opacity=".15" fill-rule="evenodd" d="M223.684 402.059c8.171-9.672 9.989-24.313 4.316-35.653l.11-.057c-.005-.012-.005-.029-.011-.04l.848-.266c9.603 3.52 19.282 7.064 29.386 8.656a63.316 63.316 0 0 0 14.766.669 44.98 44.98 0 0 0 15.317-3.791c12.707-5.812 21.745-18.646 23.62-32.497.047-.346.093-.698.128-1.045 1.488-13.527-3.561-27.527-12.91-37.436-9.592-10.163-23.413-16.008-37.379-16.557l16.529 52.511-.018.732c-28.27-.593-56.458-1.313-84.662-2.034a52412.5 52412.5 0 0 0-25.54-.649l.028-1.241c.41-1.223 14.226-45.019 14.226-45.019-21.197 2.736-43.057-1.795-62.124-11.455-19.068-9.66-35.394-24.296-48.292-41.338-13.22-17.468-23.046-37.79-26.44-59.434-3.392-21.644-.057-44.618 11.156-63.437 2.245-3.774 5.032-7.56 9.13-9.159a12.232 12.232 0 0 1 3.676-.796c4.492-.289 9.184 1.656 13.333 3.762 3.567 1.81 7.249 3.945 9.753 6.966a13.635 13.635 0 0 1 2.153 3.538c2.27 5.546.242 11.642-1.692 17.455-.283.852-.565 1.698-.83 2.535-6.81 21.487-2.706 45.787 9.384 64.808 12.09 19.021 31.663 32.791 53.191 39.45 21.529 6.66 44.304 6.47 66.217 1.207l.179.005c-.09 3.02-.983 5.995-1.871 8.956-.312 1.04-.624 2.079-.9 3.117a48.827 48.827 0 0 0-1.587 14.278c.063 1.564.433 3.451 1.905 3.976 1.436.508 2.896-.652 3.906-1.789 7.398-8.339 9.73-19.91 11.224-30.956.064-.448.122-.898.18-1.354l.305.041c19.691 2.729 39.197 7.877 56.867 16.989 17.671 9.112 33.472 22.339 43.987 39.208 8.177 13.112 12.985 28.492 13.066 43.889a71.815 71.815 0 0 1-1.12 13.18c-3.526 19.564-15.98 37.708-33.807 46.497-7.248 3.573-15.085 5.558-23.095 6.764-5.482.825-11.051 1.287-16.568 1.639-17.001 1.096-34.488 1.275-50.617-4.161.196-.219.392-.439.577-.664ZM63.588 111.271a.866.866 0 0 1 1.44.96c-12.23 18.351-14.984 41.995-10.748 63.75 4.237 21.756 14.923 41.827 27.7 60.067a.866.866 0 0 1-1.419.994c-12.848-18.343-23.68-38.643-27.98-60.73-4.302-22.088-1.535-46.223 11.007-65.041Z" clip-rule="evenodd"/><path fill="#000" fill-rule="evenodd" d="M236.575 182.641a59.49 59.49 0 0 1-30.442-14.249l-1.485.384a38.944 38.944 0 0 0-8.12 30.516l-.665.11c-7.663-7.438-13.198-17.284-14.531-27.891-1.333-10.607 1.784-21.897 9.124-29.657 9.673-10.227 25.404-13.107 39.081-9.817 13.678 3.29 25.52 11.934 35.451 21.901 2.005 2.01 3.967 4.095 5.933 6.184 7.29 7.745 14.624 15.537 24.278 19.728 7.689 3.336 16.113 4.047 24.53 4.757 3.1.262 6.199.523 9.259.916 22.069 2.834 43.703 13.435 56.828 31.4 5.82 7.97 9.794 17.043 13.771 26.121 3.767 8.598 7.534 17.199 12.873 24.871 14.567 20.937 40.945 33.01 66.309 30.361l.041.375c-31.309 15.835-69.985 9.776-95.372-14.439-5.727-5.464-10.689-11.712-15.641-17.946-7.067-8.898-14.113-17.768-23.33-24.294a60.101 60.101 0 0 0-27.966-10.625c-9.046-.996-18.104.081-27.176 1.16-4.48.533-8.962 1.066-13.449 1.351-13.573.86-28.445-1.114-38.077-10.711l-1.229-.271c1.142-5.269 2.791-10.365 5.5-15.022l.738-.422c-5.113-6.983-7.56-15.968-6.267-24.543l.034-.248Zm-28.067-46.919c14.897-4.443 30.773 2.88 42.484 12.594 5.166 4.285 9.884 9.083 14.563 13.842v.001l1.876 1.905c5.314 5.385 10.659 10.635 16.699 15.044a.866.866 0 1 1-1.021 1.398c-6.164-4.499-11.594-9.839-16.911-15.226a1677.91 1677.91 0 0 1-1.879-1.909c-4.686-4.765-9.338-9.497-14.433-13.723-11.552-9.582-26.822-16.461-40.883-12.267a29.264 29.264 0 0 0-19.734 36.205.866.866 0 0 1-1.663.483 30.993 30.993 0 0 1 20.902-38.347Z" clip-rule="evenodd"/><path fill="#000" fill-opacity=".15" d="M113.827 358.69c-1.645 1.258-.918 3.854-.011 5.719a169.95 169.95 0 0 0 11.674 20.257l.369-.248a7.52 7.52 0 0 1 6.781-4.605l.41-.3-13.262-18.156a9.219 9.219 0 0 0-2.516-2.619c-1.044-.631-2.475-.787-3.445-.048Z"/><path fill="#000" fill-opacity=".15" d="m125.86 384.417-.369.248a170.457 170.457 0 0 0 6.902 9.557c2.054 2.656 5.833 6.394 9.095 3.064 3.347-3.404-1.131-7.779-3.157-10.549-1.76-2.406-3.52-4.815-5.28-7.226l-.41.3a7.526 7.526 0 0 0-6.781 4.606Z"/><path stroke="#000" stroke-linecap="round" stroke-linejoin="round" stroke-width="2" d="M217.63 199.648c-.641.987-2.251.958-3.088.127a3.476 3.476 0 0 1-.681-3.318 11.645 11.645 0 0 1 1.605-3.146 8.29 8.29 0 0 0 1.396-3.226m5.391 20.534a5.081 5.081 0 0 0 5.424-.843"/><path stroke="#000" stroke-linecap="round" stroke-linejoin="round" stroke-width="2" d="M242.069 207.854c-2.708 4.657-4.357 9.753-5.5 15.022-1.131 5.182-1.783 10.532-2.481 15.801-.058.456-.116.906-.179 1.354-1.495 11.046-3.826 22.617-11.225 30.956-1.01 1.137-2.469 2.297-3.906 1.789-1.472-.525-1.841-2.412-1.904-3.976a48.827 48.827 0 0 1 1.587-14.278c1.062-3.993 2.649-7.992 2.77-12.072.023-.691 0-1.383-.069-2.072-.462-4.501-3.041-8.524-6.071-11.888-3.03-3.365-6.562-6.25-9.522-9.679a39.113 39.113 0 0 1-.917-50.04"/><path stroke="#000" stroke-linecap="round" stroke-linejoin="round" stroke-width="2" d="M206.002 183.766a5.816 5.816 0 0 1 3.758-1.105 5.818 5.818 0 0 1 3.605 1.532m10.168 2.417a6.03 6.03 0 0 1 3.854-1.315 6.018 6.018 0 0 1 3.81 1.437m16.563-3.538a54.854 54.854 0 0 1-11.184-.554 59.481 59.481 0 0 1-30.442-14.248 55.274 55.274 0 0 1-7.981-8.761m52.666 55.525a32.022 32.022 0 0 1-8.01-7.722c-5.113-6.982-7.56-15.968-6.267-24.543"/><path stroke="#000" stroke-linecap="round" stroke-linejoin="round" stroke-width="2" d="M195.868 199.399c-7.664-7.439-13.193-17.292-14.532-27.891-1.338-10.6 1.784-21.895 9.124-29.657 9.673-10.227 25.404-13.112 39.082-9.817 13.677 3.295 25.52 11.934 35.451 21.901 9.435 9.464 17.953 20.591 30.208 25.912 10.521 4.564 22.415 4.213 33.789 5.673 22.068 2.833 43.704 13.437 56.827 31.4 11.335 15.518 15.668 35.22 26.645 50.992 14.566 20.937 40.945 33.01 66.309 30.361a5.48 5.48 0 0 0 .312-.029"/><path stroke="#000" stroke-linecap="round" stroke-linejoin="round" stroke-width="2" d="M237.799 223.147c9.632 9.597 24.504 11.571 38.077 10.711 13.573-.86 27.112-4 40.625-2.511a60.112 60.112 0 0 1 27.966 10.625c15.674 11.098 25.069 28.976 38.971 42.24 25.387 24.215 64.063 30.274 95.372 14.439m-244.415-59.934c19.69 2.73 39.202 7.878 56.867 16.99 17.665 9.112 33.472 22.339 43.986 39.208 8.177 13.111 12.985 28.489 13.066 43.888a71.819 71.819 0 0 1-1.12 13.181c-3.526 19.563-15.979 37.708-33.806 46.497-7.248 3.572-15.085 5.557-23.095 6.763-5.483.825-11.052 1.287-16.569 1.639-17.001 1.097-34.487 1.276-50.617-4.161-.329-.11-.658-.219-.981-.335"/><path stroke="#000" stroke-linecap="round" stroke-linejoin="round" stroke-width="2" d="M223.026 402.815c.028-.029.055-.06.081-.092.196-.219.392-.439.577-.664 8.172-9.672 9.989-24.313 4.316-35.653"/><path stroke="#000" stroke-linecap="round" stroke-linejoin="round" stroke-width="2" d="M205.753 389.542c-4.94-1.16-9.88-2.322-14.82-3.486-1.754-.41-3.797-.762-5.193.375-1.563 1.27-1.385 3.861-.15 5.448 1.234 1.587 3.203 2.406 5.095 3.093 10.261 3.722 22.017 7.196 32.93 7.031m-17.862-12.461a89.716 89.716 0 0 0 7.144 1.679l-7.144-1.679Z"/><path stroke="#000" stroke-linecap="round" stroke-linejoin="round" stroke-width="2" d="m207.081 378.652-11.727-4.554c-3.151-1.223-7.381-2.164-9.366.573-1.281 1.767-.814 4.352.521 6.077 1.334 1.726 3.353 2.761 5.332 3.676a91.469 91.469 0 0 0 13.914 5.119m1.326-10.891a73.219 73.219 0 0 0 6.718 2.608c-2.24-.865-4.479-1.734-6.718-2.608Zm21.029-12.304c-.006-.011-.006-.028-.012-.04a22.951 22.951 0 0 0-7.49-11.25c-1.146-.941-2.776-1.778-4.04-.999-1.073.664-1.246 2.13-1.24 3.394a36.39 36.39 0 0 0 3.156 14.687 49.789 49.789 0 0 0-23.541-11.302c-2.436-.444-5.558-.375-6.625 1.853-1.132 2.36 1.044 4.916 3.099 6.532a73.636 73.636 0 0 0 15.666 9.429M95.648 79.029c.393-.9.774-1.8 1.155-2.709.72-1.714 1.43-3.49 1.472-5.35.04-1.86-.733-3.86-2.355-4.766-1.945-1.085-4.496-.277-6.077 1.281-1.582 1.559-2.42 3.706-3.21 5.782a51894.74 51894.74 0 0 0-8.102 21.272l7.15-18.959c.782-2.072 1.576-4.253 1.294-6.446-.283-2.193-2.037-4.38-4.254-4.328-2.452.063-4.022 2.58-5.032 4.819a94.848 94.848 0 0 0-8.172 32.64"/><path stroke="#000" stroke-linecap="round" stroke-linejoin="round" stroke-width="2" d="M95.648 79.028c-3.347 5.707-5.984 11.871-8.58 17.969a268.308 268.308 0 0 0 8.58-17.969Zm-2.931 34.357a69.772 69.772 0 0 0 18.006-5.615c1.702-.796 3.607-2.019 3.624-3.901.011-1.31-.999-2.458-2.193-2.995a8.793 8.793 0 0 0-3.855-.537 42.314 42.314 0 0 0-15.26 3.29c6.752-8.594 13.735-17.688 15.472-28.48.392-2.412.092-5.54-2.205-6.359-2.129-.756-4.236 1.096-5.644 2.865a63.106 63.106 0 0 0-5.015 7.38m37.403 300.479c1.76 2.406 3.52 4.815 5.281 7.225 2.025 2.771 6.503 7.145 3.156 10.55-3.26 3.33-7.04-.41-9.095-3.065a168.454 168.454 0 0 1-6.902-9.556 169.814 169.814 0 0 1-11.674-20.257c-.907-1.864-1.634-4.461.011-5.719.969-.738 2.401-.583 3.445.046a9.266 9.266 0 0 1 2.517 2.62c4.42 6.054 8.841 12.107 13.261 18.156Z"/><path stroke="#000" stroke-linecap="round" stroke-linejoin="round" stroke-width="2" d="M125.86 384.417a7.518 7.518 0 0 1 6.781-4.605m9.256 10.595c1.407.047 2.459-1.477 2.419-2.885-.041-1.408-.849-2.656-1.662-3.802a62.044 62.044 0 0 0-7.33-8.512m32.889-41.847c.41-1.223 14.226-45.019 14.226-45.019-21.198 2.736-43.058-1.795-62.125-11.455s-35.393-24.296-48.292-41.338c-13.221-17.468-23.043-37.794-26.437-59.435-3.393-21.641-.057-44.616 11.156-63.437 2.244-3.775 5.032-7.56 9.13-9.159a12.231 12.231 0 0 1 3.675-.796c4.49-.289 9.182 1.656 13.334 3.762 3.566 1.812 7.248 3.948 9.753 6.966a13.663 13.663 0 0 1 2.152 3.537c2.605 6.36-.444 13.441-2.522 19.991-6.81 21.486-2.7 45.787 9.384 64.808 12.085 19.022 31.66 32.791 53.191 39.451 21.532 6.66 44.302 6.471 66.215 1.211m57.351 94.105-16.529-52.511c13.966.549 27.787 6.394 37.379 16.557 9.349 9.909 14.398 23.909 12.91 37.436-.035.347-.081.699-.128 1.045-1.875 13.851-10.913 26.685-23.62 32.497a44.98 44.98 0 0 1-15.317 3.791c-4.931.354-9.887.13-14.766-.669-10.104-1.593-19.783-5.136-29.386-8.656"/><path stroke="#000" stroke-linecap="round" stroke-linejoin="round" stroke-width="2" d="M96.52 332.952 20.747 435.606l441.174-5.292-83.915-90.847"/><path stroke="#000" stroke-linecap="round" stroke-linejoin="round" stroke-width="2" d="M311.056 337.921a8544.666 8544.666 0 0 1-32.67-.635c-36.801-.774-73.464-1.76-110.202-2.683-23.835-.6-47.724-1.151-71.667-1.651m281.489 6.515c-10.013.104-19.247-1.05-28.988-.669m-51.264 80.516-138.907-1.223 14.664-73.326h82.692"/><path stroke="#000" stroke-linecap="round" stroke-linejoin="round" stroke-width="2" d="M290.321 405.966c2.649 4.011 4.958 8.628 7.433 13.349m-41.551-74.55c3.295 5.77 6.181 11.542 9.643 17.89 2.886 4.039 4.617 8.656 7.226 12.367m.603-52.581c-3.569 5.833-11.332 7.897-18.096 6.875-6.764-1.022-12.864-4.489-18.973-7.566-6.109-3.077-12.714-5.875-19.537-5.385-5.348.383-10.329 2.76-15.087 5.231-4.758 2.471-9.541 5.117-14.809 6.119-5.267 1.002-11.231.07-14.961-3.782"/><path stroke="#000" stroke-linecap="round" stroke-linejoin="round" stroke-width="2" d="M271.649 315.948c-4.493 5.495-12.728 6.44-19.602 4.673-6.874-1.766-12.96-5.697-19.453-8.562-6.912-3.05-14.704-4.907-22.036-3.083-4.26 1.059-8.117 3.294-11.923 5.479-3.806 2.186-7.698 4.375-11.979 5.333-4.282.957-9.09.52-12.557-2.175"/><path stroke="#000" stroke-linecap="round" stroke-linejoin="round" stroke-width="2" d="M269.256 308.397c-5.279 4.23-12.792 4.587-19.356 2.949-6.563-1.638-12.54-5-18.759-7.663-6.22-2.662-13.069-4.653-19.703-3.333-4.088.815-7.821 2.836-11.445 4.896-3.624 2.059-7.262 4.208-11.281 5.312-4.019 1.105-8.549 1.059-12.107-1.112m-83.63-175.141a47.862 47.862 0 0 0-38.854-15.925"/><path stroke="#000" stroke-linecap="round" stroke-linejoin="round" stroke-width="2" d="M90.569 141.782a35.795 35.795 0 0 0-39.755-15.381m192.431 244.777a36.862 36.862 0 0 1-9.323 33.593m15.818-31.353a37.277 37.277 0 0 1-7.653 32.98M176.482 145.99l-11.057-10.943m.685 13.049 9.795-13.837m103.724 20.755 7.358-6.216m.325 7.652-6.596-8.631m-7.774-17.16 1.541-7.187m3.897 5.156-8.445-2.909M98.101 276.803a151.454 151.454 0 0 1-34.247-32.601m337.111-16.274a64.426 64.426 0 0 0-23.161-33.345m51.936 121.671a56.072 56.072 0 0 1-34.172-12.284"/><path fill="#000" fill-opacity=".15" d="M178.416 108.061a6.45 6.45 0 0 1-1.614-2.039 2.664 2.664 0 0 1 .079-2.511c.713-1.086 2.26-1.234 3.535-.984a8.944 8.944 0 0 1 5.738 3.891c-.755-1.969-.974-4.251-.052-6.146.921-1.895 3.196-3.2 5.203-2.556 1.875.602 2.969 2.666 3.035 4.632.066 1.966-.677 3.861-1.445 5.671-1.385 3.259-1.99 7.503-3.48 6.909-3.265-1.304-8.42-4.477-10.999-6.867Z"/><path fill="#000" d="m217.404 109.906-5.335-.971a.337.337 0 0 0-.354.162.34.34 0 0 0 .029.389l3.421 4.206a.334.334 0 0 1 .075.184.333.333 0 0 1-.04.193l-2.572 4.773a.336.336 0 0 0-.038.201c.007.07.036.135.082.187a.354.354 0 0 0 .175.106.35.35 0 0 0 .205-.014l5.057-1.954a.343.343 0 0 1 .37.083l3.745 3.921a.337.337 0 0 0 .537-.056.343.343 0 0 0 .05-.198l-.295-5.416a.352.352 0 0 1 .046-.193.347.347 0 0 1 .146-.133l4.887-2.35a.336.336 0 0 0 .149-.14.339.339 0 0 0-.209-.497l-5.241-1.392a.333.333 0 0 1-.168-.104.335.335 0 0 1-.082-.18l-.725-5.373a.34.34 0 0 0-.625-.14l-2.943 4.554a.343.343 0 0 1-.347.152Z"/><path stroke="#000" stroke-linecap="round" stroke-linejoin="round" stroke-width="2" d="M333.385 110.995c4.552-17.83 25.814-29.34 43.233-23.401 17.418 5.938 27.222 28.038 19.934 44.937-2.146 4.974-6.298 9.835-11.713 9.933-8.369.151-12.178-12.661-6.26-18.58 5.917-5.919 16.559-4.435 22.644 1.311 6.085 5.747 8.449 14.414 9.312 22.739.862 8.325.502 16.809 2.362 24.969s6.506 16.306 14.234 19.52M58.43 171.635l3.666-4.888m17.11 35.441a16.398 16.398 0 0 0-6.11-5.5m5.498-17.109 3.055-4.277m15.186 72.053 3.076-5.488m17.295-9.874-6.61-5.63m-19.169-2.789 1.221-7.332m41.551 55.605-4.888-7.944m23.831-6.721 7.332-2.442m15.276 25.662-3.666-6.719m24.442-12.225a15.055 15.055 0 0 1 6.718-4.277m2.448 31.777-3.667-5.5m39.719 5.5 3.666-4.277m11.61-22-6.111-7.332m32.355 20.148a7.043 7.043 0 0 1 2.05-2.371 7.04 7.04 0 0 1 2.874-1.251m30.579 29.284-4.68-8.065m7.704 39.858 4.277-4.278m14.123-6.769-4.243-6.135m-12.325 45.289 4.277 6.719m-18.33 11.613 4.277-4.888m-34.901 12.903-4.289-4.265m15.968 13.97 4.277-3.666m-54.834-153.772c-.896 11.544-3.257 23.416-10.087 32.766-1.736 2.377-3.82 4.616-6.502 5.833-2.682 1.217-6.066 1.212-8.375-.616-1.817-1.438-2.725-3.787-2.917-6.097-.191-2.309.243-4.62.678-6.897 1.319-6.903 2.637-13.805 3.954-20.708"/><path fill="#000" d="M206.287 168.055c1.895 1.45 3.386 3.333 5.192 4.896a39.984 39.984 0 0 0 6.65 4.404 43.638 43.638 0 0 0 14.599 4.989l-2.48.656.762-.615c2.289-1.847 6.571-.898 6.368 2.637-.209 3.624-.355 7.326.422 10.897a21.64 21.64 0 0 0 1.678 5c.917 1.85 2.318 3.411 2.803 5.443.916 3.841-3.287 7.524-6.886 5.294-4.148-2.571-6.165-8.989-6.915-13.594-.839-5.156-.451-10.228 1.947-14.925v3.766l-.577-.817 1.523 1.171a41.456 41.456 0 0 1-15.449-6.133 39.517 39.517 0 0 1-5.953-4.96c-1.947-1.928-4.194-3.945-5.287-6.506-.391-.916.544-2.414 1.603-1.603Zm65.341 168.689c-4.566-8.255-7.755-17.649-10.885-26.529a267.36 267.36 0 0 1-8.039-27.41c-.753-3.192 1.463-5.897 4.648-6.101 8.551-.549 18.312.894 25.876 5.147 3.767 2.118 7.539 4.226 10.986 6.854 3.285 2.506 6.197 5.801 8.89 8.944a56.811 56.811 0 0 1 11.819 22.679 43.947 43.947 0 0 1 1.244 13.001 63.116 63.116 0 0 1-.625 6.302c-.31 2.145-.378 4.037-1.667 5.833-.615.857-2.132.878-2.41-.315-.469-2.008-.019-3.611.085-5.647.083-1.92.051-3.844-.097-5.76a69.613 69.613 0 0 0-2.104-11.875 49.046 49.046 0 0 0-10.547-20.498c-2.57-2.924-5.579-4.961-8.782-7.091-3.105-2.064-6.368-3.9-9.97-4.891-3.61-.994-7.244-2.378-10.992-2.767a69.667 69.667 0 0 0-11.706-.277l4.647-6.101c2.169 9.094 4.636 18.147 7.448 27.063 2.813 8.916 6.573 17.5 9.455 26.373 1.396 4.296-5.098 6.999-7.273 3.066h-.001Zm75.279 2.863c.889 2.087 1.598 3.48 1.562 5.815-.036 2.424-.086 4.804-.358 7.215-.555 4.919-2.176 9.495-4.182 14.002a64.658 64.658 0 0 1-17.07 23.021c-16.159 13.76-38.002 19.568-58.897 19.869-13.181.19-26.372-1.74-39.223-4.546-3.144-.686-4.98-4.345-4.161-7.327.892-3.246 4.175-4.849 7.328-4.161 19.466 4.249 40.055 6.195 59.584 1.229 16.525-4.201 33.02-13.641 42.563-28.164 2.697-4.106 4.591-8.405 6.362-12.961.838-2.154 1.631-4.308 2.298-6.522.351-1.164.46-2.368.714-3.553.301-1.41 1.053-2.344 1.604-3.671.288-.692 1.484-1.161 1.875-.245l.001-.001Z" opacity=".1"/></g></g></g><defs><clipPath id="a"><path fill="#fff" d="M500 0H0v500h500z"/></clipPath></defs></svg>