<svg xmlns="http://www.w3.org/2000/svg" width="500" height="500" fill="none"><g clip-path="url(#a)"><mask id="b" width="526" height="526" x="-13" y="-13" maskUnits="userSpaceOnUse" style="mask-type:luminance"><path fill="#fff" d="M513-13H-13v526h526V-13Z"/></mask><g mask="url(#b)"><mask id="c" width="484" height="336" x="8" y="82" maskUnits="userSpaceOnUse" style="mask-type:luminance"><path fill="#fff" d="M491.631 82.885H8.369v334.777H491.63V82.885Z"/></mask><g mask="url(#c)"><path fill="#000" fill-rule="evenodd" d="M375.982 328.269c4.176 26.657 5.323 53.764.266 80.071l.975.184c.899-.634 1.794-1.283 2.685-1.936a178.6 178.6 0 0 0 57.45-71.705c12.892-29.38 17.824-61.375 13.706-93.19-18.616 9.144-35.243 22.747-48.532 39.066a149.852 149.852 0 0 0-26.173 47.453l-.377.057Zm71.435-57.412a.763.763 0 0 0-1.519-.151A193.839 193.839 0 0 1 396.155 382.3a.763.763 0 0 0 1.127 1.029 195.368 195.368 0 0 0 50.135-112.472Z" clip-rule="evenodd"/><path fill="#000" fill-opacity=".15" fill-rule="evenodd" d="M358.568 253.433c4.314 15.889 8.63 31.78 12.225 47.842 1.998 8.914 3.77 17.93 5.187 26.994l.378-.057a149.869 149.869 0 0 1 26.172-47.453l-.324-.261c9.651-24.087 9.094-52.947-1.669-76.562l-.092.044c-19.295 10.011-34.632 26.017-42.763 46.174h-.004l.89 3.279Zm42.7-38.381a.764.764 0 0 0-1.461.443 91.576 91.576 0 0 1 .084 52.833.763.763 0 0 0 1.462.438 93.104 93.104 0 0 0-.085-53.714Zm-46.373 145.217c3.282-8.518-.077-15.913-7.056-21.047-5.328-3.916-9.849-4.748-16.227-2.986-4.564 1.264-8.837 3.079-12.205 6.52-4.912 5.026-7.139 12.627-5.382 19.436 1.757 6.808 7.565 12.48 14.48 13.753 5.735 1.055 11.726-.813 16.59-4.037 4.298-2.845 7.947-6.829 9.8-11.639Zm-14.488-20.029a.763.763 0 0 0-.307 1.495 12.695 12.695 0 0 1 9.924 14.81.764.764 0 0 0 1.499.286 14.221 14.221 0 0 0-11.116-16.591Zm-231.512 63.633-.02-.096v-.001a5.06 5.06 0 0 1 6.306 5.212c-.008.124-.019.251-.031.379-.065.736-.134 1.519.394 1.998.399.286.883.433 1.374.416 5.839.404 11.678.813 17.519 1.224 1.119.077 2.406.092 3.151-.745a2.376 2.376 0 0 0 0-2.875 4.696 4.696 0 0 0-2.569-1.64c-.474-.144-.959-.251-1.444-.358a17.59 17.59 0 0 1-1.57-.397c-3.054-.978-5.372-3.59-6.664-6.528-1.292-2.938-1.689-6.181-1.931-9.375l-.005-.184a180.567 180.567 0 0 1-20.206-.891l-.009.121c-.379 6.018-.759 12.037-1.142 18.057-.063.483-.029.973.102 1.442a2.416 2.416 0 0 0 1.515 1.37c.675.205 1.376.31 2.082.31.899.043 1.979-.008 2.443-.775.174-.347.265-.73.267-1.117l.438-5.547Zm11.139-9.348a.762.762 0 1 0-1.524-.079 13.857 13.857 0 0 0 5.317 11.65.763.763 0 1 0 .939-1.203 12.344 12.344 0 0 1-4.732-10.368Zm-74.247 2.984c.805-1.975 1.607-3.953 2.405-5.933a10.87 10.87 0 0 0 3.484.817 25.226 25.226 0 0 0 .237 6.102 8.488 8.488 0 0 0 2.996 5.184c1.464 1.101 3.292 1.494 5.1 1.882.41.088.817.175 1.22.271 1.373.326 2.74.759 4.104 1.192 3.302 1.047 6.598 2.091 9.975 1.605-.857-1.247-2.075-2.162-3.294-3.078-1.124-.845-2.25-1.69-3.094-2.797-1.936-2.539-2.062-6.097-1.123-9.15.94-3.054 2.817-5.716 4.665-8.319l.044-.208c-7.651-1.636-15.254-3.499-22.804-5.445l-.029.106c-2.42 4.65-4.84 9.297-7.26 13.943a3.342 3.342 0 0 0-.377.959 2.256 2.256 0 0 0 1.206 2.182 6.65 6.65 0 0 0 2.545.687Zm20.74-9.618a.764.764 0 1 0-1.087-1.072 13.585 13.585 0 0 0-3.114 14.136.763.763 0 1 0 1.436-.516 12.054 12.054 0 0 1 2.764-12.548Z" clip-rule="evenodd"/><path fill="#000" fill-rule="evenodd" d="M143.17 387.298c1.679-2.222 1.287-5.319.813-8.063a5316.072 5316.072 0 0 0-22.224-120.416l-.141-.513c-5.875 1.598-11.774 3.097-17.742 4.293-11.243 2.256-22.828 3.436-34.196 1.882a45.046 45.046 0 0 1-4.777-.895l-.072.274c.366 3.219.629 6.441.788 9.67.331 6.5.255 13.015-.227 19.506a159.406 159.406 0 0 1-13.917 54.329 156.893 156.893 0 0 1-10.868 19.911l-.02.032c-.901 1.404-1.85 2.885-1.898 4.546-.117 4.012 4.627 6.118 8.508 7.129.832.218 1.67.436 2.507.649 7.549 1.946 15.152 3.808 22.803 5.444a274.388 274.388 0 0 0 30.693 4.936 180.56 180.56 0 0 0 20.205.891c1.226-.013 2.454-.043 3.683-.092 2.91-.103 5.822-.295 8.736-.576 2.705-.261 5.706-.769 7.346-2.937Zm-25.787-125.06a.764.764 0 1 0-1.492.32 1981.783 1981.783 0 0 1 21.212 115.277.763.763 0 0 0 1.508-.232 1982.966 1982.966 0 0 0-21.228-115.365Zm-41.629-91.164A32.713 32.713 0 0 0 92.46 162.8c3.388 3.348 3.765 8.803 2.668 13.46-.588 2.48-1.52 4.857-2.453 7.237-.84 2.143-1.68 4.288-2.27 6.508-1.014 3.804-1.142 8.135.576 11.566v.005a9.997 9.997 0 0 0 1.5 2.222l.223.353a14.73 14.73 0 0 0 5.885.485 15.533 15.533 0 0 0 7.278-2.885 16.112 16.112 0 0 0 5.488-7.051c2.952-7.39-.537-16.74-7.608-20.394 2.604-.136 4.642-2.705 4.758-5.309.116-2.604-1.336-5.081-3.276-6.819-1.941-1.738-4.342-2.86-6.708-3.964a777.064 777.064 0 0 0-.126-3.199l2.052.11 12.753-22.77-60.012 17.988 7.63 15.034 9.22-3.189c.23 1.253.46 2.507.688 3.76l.338.339-.202.915c-.066.302-.132.605-.2.905a11.695 11.695 0 0 0-9.32 8.254 11.693 11.693 0 0 0 3.403 11.975c-4.017 2.28-5.556 7.874-3.644 12.08 1.543 3.392 4.999 5.677 8.697 6.214.879.133 1.77.158 2.656.077a10.247 10.247 0 0 0 3.76-1.079 7.717 7.717 0 0 0 3.146-2.802 6.44 6.44 0 0 0 .513-1.036c.184-.484.313-.987.387-1.5.256-1.719-.039-3.533-.339-5.271-1.378-7.939-2.758-15.878-4.143-23.82l-.024-.125Zm27.792-5.172a.763.763 0 1 0-1.068 1.09 4.492 4.492 0 0 1 .381 5.987 4.474 4.474 0 0 1-1.715 1.327.764.764 0 0 0-.041 1.378 12.455 12.455 0 0 1 3.999 18.92.764.764 0 0 0 1.187.96 13.99 13.99 0 0 0 2.811-11.688 13.979 13.979 0 0 0-6.136-8.88 6.005 6.005 0 0 0 2.289-3.719 6.015 6.015 0 0 0-1.707-5.375Z" clip-rule="evenodd"/><path fill="#000" fill-opacity=".15" d="M462.005 307.822a42.5 42.5 0 0 1-1.699 28.492l.034.029c-.644.799-1.297 1.592-1.965 2.371l-.126-.109a119.693 119.693 0 0 1-3.61-19.974c-.348-3.644-.513-7.38.48-10.903a6.623 6.623 0 0 1 1.219-2.541 3.028 3.028 0 0 1 2.487-1.142c1.743.162 2.686 2.093 3.18 3.777Z"/><path fill="#000" fill-opacity=".15" d="M460.707 336.129c7.937-3.857 16.039-7.762 24.779-8.982a7.86 7.86 0 0 1 2.715-.034c.449.077.874.256 1.245.521.369.266.675.612.892 1.013.692 1.471-.339 3.17-1.472 4.336-3.794 3.896-9.205 5.89-14.605 6.538-5.358.644-10.788.083-16.155-.498a106.058 106.058 0 0 0 2.232-2.682c.082-.101.169-.203.251-.309l.118.097Z"/><path fill="#000" d="m375.434 191.532.059-.58.411.043a58.395 58.395 0 0 1 19.556-25.553c1.883 3.369.668 7.608-1.059 11.064a42.618 42.618 0 0 1-19.495 19.184 156.843 156.843 0 0 0 .528-4.158Zm15.874-45.662c1.175.969 1.209 2.74 1.001 4.25a25.034 25.034 0 0 1-15.859 19.687l-.165.005c-.029-.993-.072-1.98-.125-2.967l.082-.005c2.26-6.596 4.598-13.333 8.931-18.797a7.994 7.994 0 0 1 2.696-2.4 3.28 3.28 0 0 1 3.439.227Z"/><path fill="#000" d="M376.286 169.813c.005.096.01.194.01.29l-.407.015c-2.483-2.613-5.773-4.268-8.827-6.185-3.054-1.918-6.054-4.298-7.361-7.661-.537-1.384-.726-3.054.116-4.278a3.705 3.705 0 0 1 2.971-1.476 6.817 6.817 0 0 1 3.291.877c2.787 1.437 4.922 3.925 6.451 6.664s2.507 5.739 3.475 8.726l.154.014v.049c.054.986.096 1.974.127 2.965Zm-13.473.301a40.149 40.149 0 0 1 12.622 21.419c-.155 1.345-.32 2.691-.508 4.031l-.219-.029c-6.316-6.027-12.753-12.214-16.721-19.992-.619-1.219-1.19-2.526-1.132-3.896.058-1.37.905-2.794 2.246-3.078 1.359-.291 2.661.628 3.712 1.545Z"/><path fill="#000" fill-opacity=".15" d="M360.819 352.39c.692 11.126-5.424 22.509-15.293 27.688-9.869 5.178-22.983 3.61-31.061-4.07-8.077-7.681-10.246-21.014-4.646-30.655 2.58-4.433 6.515-7.879 10.928-10.414 7.932-4.565 14.296-5.619 22.988-3.465 10.236 2.54 16.426 10.332 17.084 20.916Zm-5.924 7.879c3.281-8.518-.077-15.912-7.056-21.047-5.328-3.916-9.849-4.748-16.227-2.987-4.564 1.261-8.837 3.079-12.205 6.521-4.913 5.023-7.139 12.631-5.382 19.435 1.757 6.805 7.565 12.482 14.48 13.753 5.735 1.055 11.725-.812 16.59-4.036 4.297-2.846 7.947-6.829 9.8-11.639Zm-200.616-20.127c1.006 19.043.508 38.039-2.633 56.642-14.499-.949-24.556-5.885-24.556-5.885l-.005-.087c2.913-.106 5.825-.298 8.735-.576 2.705-.261 5.706-.767 7.347-2.938 1.679-2.221 1.287-5.319.812-8.062a5494.185 5494.185 0 0 0-10.066-56.487h.005s4.605 2.042 20.361 17.393Z"/><path fill="#000" d="M116.058 235.277a139.851 139.851 0 0 0 8.706-1.873c2.333-.581 5.057-1.128 7.095-.106.386.189.742.435 1.055.731 1.437 1.35 1.727 3.484 1.94 5.444.283 2.202.375 4.424.274 6.641-.179 2.554-.827 4.98-2.448 6.934-2.27 2.744-5.909 3.848-9.341 4.791-.576.16-1.147.315-1.723.47-5.875 1.597-11.775 3.097-17.742 4.293-11.243 2.255-22.828 3.436-34.197 1.883a45.3 45.3 0 0 1-4.776-.896c-3.993-.997-7.777-2.676-10.511-5.677-2.924-3.203-4.298-7.612-4.415-11.949-.116-4.336.95-8.629 2.406-12.718 3.668-10.289 9.273-19.034 17.374-26.361l.039-.257a11.04 11.04 0 0 0 2.657.078 10.248 10.248 0 0 0 3.76-1.08l.058.116c-1.515 4.39.512 9.655 4.452 12.114 3.94 2.458 9.389 2.047 13.082-.774a13.278 13.278 0 0 0 4.79-12.383l-.009-.063a15.544 15.544 0 0 0 7.279-2.885 299.141 299.141 0 0 0 31.266 7.243c.697 6.904 1.578 13.943 2.599 21.259l.087.18c-.232.116-.469.232-.712.348l-.131-.274a11.335 11.335 0 0 0-1.011-5.246c-.407-.891-1.22-1.858-2.173-1.621a2.26 2.26 0 0 0-1.264 1.297 17.128 17.128 0 0 0-1.606 4.791l-.586-.155-13.594-2.63c-.682-.13-1.466-.242-2.018.185-.59.454-.648 1.301-.662 2.042-.025 1.887-.053 3.775-.083 5.662l.083.446Z"/><path fill="#000" fill-opacity=".15" d="M89.276 211.515a7.086 7.086 0 0 0 3.968-6.514l.155-.668c1.698.407 3.455.508 5.188.301l.01.063a13.273 13.273 0 0 1-4.791 12.382c-3.693 2.822-9.138 3.233-13.082.775-3.944-2.459-5.967-7.726-4.453-12.114l-.055-.116a7.711 7.711 0 0 0 3.146-2.802l.411.223a6.916 6.916 0 0 0 5.566 9.056 6.923 6.923 0 0 0 3.94-.587l-.003.001Zm-24.019 81.513.135.009a159.398 159.398 0 0 1-13.917 54.329l-.055-.024c-15.917-16.125-26.046-37.845-23.079-60.311 8.982.932 16.527 2.038 22.407 3.044 9.37 1.603 14.509 2.953 14.509 2.953Z"/><path stroke="#000" stroke-linecap="round" stroke-linejoin="round" stroke-width="2" d="M375.062 113.562a17.9 17.9 0 0 0-10.841-1.578c-5.677.983-10.342 4.424-13.942 8.973a42.362 42.362 0 0 0-6.794 12.912 68.33 68.33 0 0 0-1.66 5.88c-3.925 16.677-1.757 34.453 1.5 51.41 3.818 19.881 9.05 39.443 14.355 58.995 4.607 16.982 9.272 33.954 13.115 51.121 1.999 8.914 3.77 17.93 5.188 26.994 4.176 26.657 5.324 53.763.266 80.071-.354 1.81-.733 3.617-1.137 5.421m2.529-298.616a16.716 16.716 0 0 0-2.57-1.579"/><path stroke="#000" stroke-linecap="round" stroke-linejoin="round" stroke-width="2" d="M368.734 119.431c-.055.005-.102.015-.155.024-6.282.987-9.737 9.479-6.32 14.873 1.917 3.03 5.43 4.631 9.001 4.728 2.87.12 5.682-.83 7.89-2.667 4.864-4.215 5.534-12.2 1.985-17.572a14.67 14.67 0 0 0-3.47-3.659m-2.733 298.627c-75.144-2.576-152.709-2.589-227.707 2.783"/><path stroke="#000" stroke-linecap="round" stroke-linejoin="round" stroke-width="2" d="M139.728 230.254c-1.021-7.318-1.902-14.356-2.599-21.26-2.057-20.403-2.502-39.614-.16-61.249.968-8.939 2.88-18.584 9.665-24.488 5.667-4.931 13.555-6.2 20.999-7.206a1342.534 1342.534 0 0 1 154.238-11.871c18.226-.349 37.536.383 53.192 9.383l.006.002.004.003a54.186 54.186 0 0 1 2.589 1.593c.174.11.343.223.518.339M147.225 416.567a185.834 185.834 0 0 0 4.423-19.785c3.141-18.603 3.639-37.599 2.633-56.642-1.001-18.981-3.504-38.011-6.374-56.749-.055-.373-.109-.751-.169-1.123-2.434-15.815-3.228-21.168-5.445-37.071m-69.515-73.758a29.767 29.767 0 0 0 2.976-.368 32.713 32.713 0 0 0 16.706-8.274 32.23 32.23 0 0 0 1.234-1.214m-2.715 39.991c.399.804.903 1.551 1.5 2.222"/><path stroke="#000" stroke-linecap="round" stroke-linejoin="round" stroke-width="2" d="M92.325 162.662c.048.043.093.09.135.14 3.388 3.349 3.765 8.804 2.666 13.459-1.118 4.712-3.48 9.06-4.724 13.744-1.01 3.804-1.142 8.136.576 11.567m-15.2-30.376a36105.02 36105.02 0 0 1 4.143 23.821c.3 1.737.595 3.552.338 5.271a7.053 7.053 0 0 1-.387 1.499c-.14.36-.31.707-.513 1.036a7.713 7.713 0 0 1-3.146 2.802 10.263 10.263 0 0 1-3.76 1.08c-.885.081-1.777.055-2.656-.077-3.698-.537-7.153-2.822-8.697-6.214-1.912-4.206-.373-9.801 3.644-12.08a11.7 11.7 0 0 1-3.402-11.976 11.697 11.697 0 0 1 9.32-8.254c.135-.603.266-1.215.401-1.82"/><path stroke="#000" stroke-linecap="round" stroke-linejoin="round" stroke-width="2" d="M70.726 165.946c-.228-1.254-.457-2.508-.687-3.761l-9.22 3.19-7.63-15.032 60.011-17.988-12.753 22.77-2.052-.11c.044 1.065.087 2.134.126 3.199 2.366 1.104 4.767 2.226 6.708 3.964 1.94 1.738 3.392 4.215 3.276 6.819-.116 2.604-2.154 5.173-4.758 5.309 7.071 3.654 10.56 13.004 7.609 20.394a16.122 16.122 0 0 1-5.489 7.051 15.533 15.533 0 0 1-7.279 2.885 14.726 14.726 0 0 1-5.884-.485"/><path stroke="#000" stroke-linecap="round" stroke-linejoin="round" stroke-width="2" d="M80.763 170.132a3.27 3.27 0 0 1 2.082-.644 3.24 3.24 0 0 1 2.018.813m5.148.276a3.306 3.306 0 0 1 2.74-.378m-4.825-2.003a5.354 5.354 0 0 1 5.28-.329m-5.422 5.338c.147.404.438.739.818.939a4.76 4.76 0 0 1 1.05.789 1.368 1.368 0 0 1 .174 1.529 1.843 1.843 0 0 1-1.476.885m-.89 7.429a2.156 2.156 0 0 1-2.187.093 6.58 6.58 0 0 1-1.824-1.48m-13.692 23.495c-8.101 7.327-13.705 16.072-17.374 26.361-1.457 4.089-2.516 8.377-2.405 12.718.111 4.341 1.49 8.745 4.414 11.949 2.734 3.001 6.52 4.68 10.511 5.677a45.86 45.86 0 0 0 4.777.896c11.368 1.553 22.954.373 34.197-1.883 5.967-1.196 11.866-2.696 17.742-4.293.576-.155 1.147-.31 1.722-.47 3.431-.943 7.071-2.047 9.341-4.791 1.622-1.955 2.27-4.38 2.449-6.935.1-2.217.009-4.439-.274-6.64-.213-1.96-.503-4.094-1.941-5.444a4.245 4.245 0 0 0-1.055-.731c-2.037-1.021-4.762-.474-7.094.106-2.88.717-5.789 1.341-8.707 1.873a142.006 142.006 0 0 1-15.786 1.994c-4.578.32-9.249.412-13.682-.764s-8.663-3.781-10.923-7.778m30.051-27.024.146.044a299.345 299.345 0 0 0 31.263 7.244c.015 0 .024.005.039.005m-4.515 24.242a17.331 17.331 0 0 1 1.873-8.301 2.253 2.253 0 0 1 1.262-1.297c.954-.237 1.768.731 2.174 1.621a11.311 11.311 0 0 1 1.011 5.247m-3.523 15.622a40.224 40.224 0 0 0 6.775-1.195 40.843 40.843 0 0 0 10.787-4.588 4.708 4.708 0 0 0 1.457-1.205 1.743 1.743 0 0 0 .223-1.791c-.435-.794-1.51-.915-2.411-.905a43.91 43.91 0 0 0-13.891 2.375"/><path stroke="#000" stroke-linecap="round" stroke-linejoin="round" stroke-width="2" d="M150.085 236.531a.473.473 0 0 0 .073-.015c1.374-.213 2.584-1.176 3.616-2.115.552-.499 1.05-1.2.886-1.921a1.651 1.651 0 0 0-1.244-1.133 4.367 4.367 0 0 0-1.753.005c-.697.102-1.389.219-2.076.354a87.382 87.382 0 0 0-11.465 3.363m11.43-3.534a8.73 8.73 0 0 0 1.888-1.887 1.89 1.89 0 0 0 .109-2.033c-.595-.87-1.887-.784-2.909-.537a41.823 41.823 0 0 0-8.826 3.354c-.233.116-.471.232-.713.349-.073.038-.15.072-.227.109m-6.541-1.314-13.594-2.63c-.682-.13-1.466-.242-2.018.184-.591.455-.649 1.302-.663 2.043a1530.23 1530.23 0 0 1-.082 5.662m-51.145 29.028c.363 3.218.626 6.441.789 9.669.33 6.5.255 13.015-.227 19.506a159.404 159.404 0 0 1-13.918 54.329 156.888 156.888 0 0 1-10.871 19.909c-.905 1.414-1.868 2.904-1.918 4.579-.116 4.012 4.627 6.117 8.508 7.129a295.6 295.6 0 0 0 2.507.648c7.55 1.946 15.152 3.809 22.804 5.445a274.85 274.85 0 0 0 30.692 4.936c6.713.674 13.459.971 20.206.891a151.665 151.665 0 0 0 12.418-.668c2.705-.262 5.706-.767 7.346-2.938 1.679-2.221 1.288-5.319.813-8.063a5499.05 5499.05 0 0 0-10.067-56.487 5253.791 5253.791 0 0 0-12.156-63.926M79.77 203.044a6.918 6.918 0 0 0 8.562 8.83 6.92 6.92 0 0 0 4.912-6.876"/><path stroke="#000" stroke-linecap="round" stroke-linejoin="round" stroke-width="2" d="M76.272 205.741c-1.515 4.39.512 9.655 4.453 12.114 3.94 2.458 9.388 2.047 13.08-.775a13.268 13.268 0 0 0 4.792-12.382"/><path stroke="#000" stroke-linecap="round" stroke-linejoin="round" stroke-width="2" d="M80.647 200.34a14.4 14.4 0 0 0 1.756 3.146 4.832 4.832 0 0 0 2.987 1.867 4.528 4.528 0 0 0 3.342-1.016 9.136 9.136 0 0 0 2.246-2.763v-.005M377.22 408.524c.9-.633 1.796-1.282 2.685-1.936a178.596 178.596 0 0 0 57.451-71.703c12.893-29.38 17.824-61.375 13.706-93.19"/><path stroke="#000" stroke-linecap="round" stroke-linejoin="round" stroke-width="2" d="M451.063 241.695c-18.618 9.142-35.242 22.745-48.532 39.066a149.858 149.858 0 0 0-26.172 47.453m25.848-47.716c9.65-24.086 9.095-52.949-1.67-76.562a1.442 1.442 0 0 0-.054-.121m-.038.165c-19.295 10.013-34.632 26.017-42.762 46.174"/><path stroke="#000" stroke-linecap="round" stroke-linejoin="round" stroke-width="2" d="M410.057 271.763a199.272 199.272 0 0 0 15.535-34.158c.014-.038.024-.077.038-.116.359-1.041.713-2.086 1.051-3.136.266-.793.517-1.589.767-2.381a201.83 201.83 0 0 0 6.644-28.089c.078-.455.15-.915.219-1.37.136-.857.264-1.713.384-2.57.024-.135.044-.271.058-.406a198.84 198.84 0 0 0 1.863-33.272m-.13-.01a49.206 49.206 0 0 0 20.06-17.674 9.652 9.652 0 0 0 1.519-3.214 3.752 3.752 0 0 0-.779-3.349c-1.578-1.64-4.355-.822-6.282.397-6.92 4.379-10.845 12.109-14.446 19.47 0 .005-.004.009-.004.014m-.117-.072a26.303 26.303 0 0 0-18.733-10.865 8.266 8.266 0 0 0-3.291.203 3.512 3.512 0 0 0-2.348 2.168c-.396 1.283.243 2.701 1.235 3.606a10.844 10.844 0 0 0 3.523 1.887l19.533 7.477"/><path stroke="#000" stroke-linecap="round" stroke-linejoin="round" stroke-width="2" d="m434.661 199.992.029-.049a91.464 91.464 0 0 1 19.828-23.665 10.612 10.612 0 0 1 3.644-2.275c1.384-.416 3.044-.208 4.007.866a4.774 4.774 0 0 1 .971 3.059c.145 4.505-2.173 8.832-5.411 11.968-3.237 3.136-7.327 5.237-11.451 7.056-4.027 1.772-8.174 3.335-11.968 5.561-.092.054-.179.106-.274.16m.398-3.136c-2.047-10.323-8.837-20.476-17.791-26.003-1.239-.765-2.855-1.457-4.079-.663-.944.62-1.215 1.941-.925 3.034a8.1 8.1 0 0 0 1.718 2.894 1981.44 1981.44 0 0 0 20.39 25.031m-6.863 30.591a63.5 63.5 0 0 1 21.991-22.552c1.655-1.007 3.432-1.956 5.37-2.086 1.938-.13 4.065.793 4.781 2.594.932 2.352-.803 4.869-2.564 6.684-8.339 8.603-19.412 13.962-30.48 18.546l.678-.808m.49-4.919a58.885 58.885 0 0 0-8.164-27.736 8.396 8.396 0 0 0-2.298-2.778c-1.002-.682-2.405-.91-3.417-.237-1.534 1.026-1.336 3.306-.91 5.101a110.27 110.27 0 0 0 12.582 31.168m-67.647 11.271a153.06 153.06 0 0 0 17.611-52.979 164.298 164.298 0 0 0 .528-4.157l.058-.581a150.909 150.909 0 0 0 .667-24.107v-.048m.291 3.01a25.028 25.028 0 0 0 15.859-19.687c.209-1.509.174-3.281-1.001-4.249a3.286 3.286 0 0 0-3.441-.227 7.987 7.987 0 0 0-2.696 2.401c-4.328 5.464-6.669 12.2-8.931 18.797"/><path stroke="#000" stroke-linecap="round" stroke-linejoin="round" stroke-width="2" d="M376.006 166.782c-.968-2.985-1.947-5.991-3.475-8.725-1.529-2.734-3.664-5.227-6.452-6.664a6.81 6.81 0 0 0-3.29-.877 3.713 3.713 0 0 0-2.972 1.476c-.842 1.225-.653 2.894-.116 4.278 1.307 3.363 4.307 5.749 7.361 7.661 3.054 1.911 6.346 3.571 8.828 6.185m-.422 21.576c-.009-.055-.024-.107-.033-.16a40.149 40.149 0 0 0-12.622-21.418c-1.051-.915-2.352-1.835-3.712-1.544-1.34.285-2.192 1.707-2.246 3.078-.055 1.37.513 2.676 1.132 3.895 3.968 7.778 10.405 13.967 16.72 19.993m.166.173a.125.125 0 0 0 .034-.019 42.626 42.626 0 0 0 19.494-19.184c1.727-3.456 2.942-7.695 1.06-11.064a58.39 58.39 0 0 0-19.556 25.553m4.263 215.947a80.102 80.102 0 0 0 63.882-7.83c4.288-2.579 8.334-5.566 12.694-8.024 4.361-2.459 9.142-4.404 14.142-4.646m-55.355-14.389c4.394-3.506 10.465-4.123 16.057-3.542 7.26.75 14.258 3.257 20.781 6.533 6.475 3.262 12.535 7.284 18.58 11.301.038.029.082.054.121.082m-70.283 2.511a65.063 65.063 0 0 1 19.6-5.609c6.606-.803 13.672-.697 19.329-4.205m-22.516-9.312a119.015 119.015 0 0 0 40.909-30.789 7.1 7.1 0 0 0 .265-.31c.668-.779 1.322-1.572 1.966-2.371.082-.102.169-.203.251-.31l.116-.145"/><path stroke="#000" stroke-linecap="round" stroke-linejoin="round" stroke-width="2" d="M460.306 336.313a42.512 42.512 0 0 0 1.699-28.492c-.493-1.684-1.438-3.616-3.178-3.78a3.032 3.032 0 0 0-2.488 1.142 6.624 6.624 0 0 0-1.219 2.541c-.992 3.523-.828 7.259-.479 10.903a119.784 119.784 0 0 0 3.61 19.973m-.254.413c.036.006.073.01.11.01 5.369.581 10.797 1.142 16.154.499 5.401-.649 10.812-2.643 14.606-6.538 1.132-1.167 2.164-2.866 1.471-4.337a3.02 3.02 0 0 0-2.137-1.534 7.88 7.88 0 0 0-2.714.034c-8.741 1.22-16.842 5.125-24.779 8.983m-90.844-41.307a522.632 522.632 0 0 0 7.812-21.338 520.823 520.823 0 0 0 12.437-41.997m-10.11 143.865c4.124-6.32 8.228-12.636 12.245-18.995 4.181-6.62 8.265-13.28 12.166-20.021 4.903-8.455 9.51-17.035 13.657-25.815 6.326-13.381 11.592-27.227 15.206-41.818"/><path stroke="#000" stroke-linecap="round" stroke-linejoin="round" stroke-width="2" d="m417.365 311.293-.015-.16a214.591 214.591 0 0 0-3.707-23.39"/><path stroke="#000" stroke-linecap="round" stroke-linejoin="round" stroke-width="2" d="M417.132 311.317c.073-.064.145-.121.219-.185.242-.203.479-.406.721-.61a75795.44 75795.44 0 0 0 18.507-15.636m-32.867 41.698a149.765 149.765 0 0 0-2.884-30.049m2.439 30.344c.384-.179.765-.358 1.147-.542a142.742 142.742 0 0 0 26.414-16.273M391.86 356.46c.131-.034.256-.063.387-.102a147.635 147.635 0 0 0 16.169-5.076m-17.098 5.284a97.645 97.645 0 0 0-.658-26.135m-12.965-56.723c-.005-.072-.015-.15-.019-.223a164.586 164.586 0 0 0-3.698-23.312m3.717 23.536a159.256 159.256 0 0 1 18.245-9.384m-10.802-15.042a116.796 116.796 0 0 0-5.837-23.873m6.05 24.062c4.138-4.066 7.608-7.942 11.741-12.007m-28.578-118.372a280.131 280.131 0 0 0-18.235 1.863m21.578 18.227-.603-.015c-9.888-.232-19.305-.208-29.173.643m-160.33 42.144c.749-3.591 1.567-7.323 3.842-10.208 2.275-2.884 6.461-4.606 9.718-2.918 3.818 1.98 4.84 7.603 8.876 9.104 2.981 1.103 6.316-.634 8.518-2.933 2.201-2.298 3.75-5.178 6.107-7.318 2.356-2.139 6.03-3.397 8.712-1.688 2.84 1.808 3.324 6.039 6.17 7.835 2.57 1.621 6.045.552 8.464-1.287 2.419-1.839 4.274-4.365 6.775-6.088 2.502-1.724 6.138-2.466 8.465-.513 1.801 1.52 2.285 4.196 4.09 5.711 2.264 1.896 5.788 1.248 8.266-.364 2.477-1.612 4.365-3.992 6.756-5.725 2.391-1.732 5.744-2.744 8.273-1.215 2.395 1.447 3.214 4.636 5.484 6.277 2.274 1.65 5.536 1.307 7.975-.087 2.439-1.393 4.255-3.649 6.001-5.856m-122.492 64.802 127.764-7.854m-125.03 29.719 127.764-9.906m-125.035 35.184 126.056-11.615m-3.451 80.341c-5.599 9.644-3.436 22.979 4.646 30.654 8.082 7.675 21.192 9.249 31.061 4.071 9.868-5.179 15.985-16.562 15.293-27.688-.658-10.584-6.849-18.376-17.084-20.917-8.692-2.153-15.056-1.096-22.988 3.466-4.414 2.535-8.348 5.981-10.928 10.414Z"/><path stroke="#000" stroke-linecap="round" stroke-linejoin="round" stroke-width="2" d="M319.407 342.755c-4.913 5.023-7.139 12.631-5.382 19.435 1.757 6.805 7.565 12.481 14.48 13.753 5.735 1.055 11.725-.813 16.59-4.037 4.297-2.845 7.945-6.828 9.8-11.638 3.281-8.518-.077-15.913-7.056-21.048-5.328-3.915-9.849-4.748-16.227-2.986-4.563 1.264-8.837 3.08-12.205 6.521Zm-75.236 44.315a1.703 1.703 0 0 0 .015 2.13 4.334 4.334 0 0 0 2.352 1.234 51.724 51.724 0 0 0 27.213-.058m-29.575-3.31a2.95 2.95 0 0 0 .29-.203 1.06 1.06 0 0 0-.29.203Zm-.001 0c0 .004 0 .004-.004.004m-7.168-5.715c-.048.13-.092.261-.126.392a4.814 4.814 0 0 0 1.796 5.198 4.817 4.817 0 0 0 5.498.125"/><path stroke="#000" stroke-linecap="round" stroke-linejoin="round" stroke-width="2" d="M211.281 390.386c.179.14.363.274.552.396 1.8 1.151 4.278 1.341 6.068.17 3.258-2.125 3.48-7.758 7.233-8.794-1.834 1.708-1.113 5.116 1.036 6.408 2.148 1.292 5.057.706 7.007-.872 1.844-1.486 2.962-3.688 3.702-5.948"/><path stroke="#000" stroke-linecap="round" stroke-linejoin="round" stroke-width="2" d="M211.281 390.386a11.746 11.746 0 0 0 2.318-4.744 5.962 5.962 0 0 0 0-3.339 2.64 2.64 0 0 0-5.101-.16 5.639 5.639 0 0 0-.106 3.407 8.66 8.66 0 0 0 2.889 4.836Zm-10.062 2.531a8.094 8.094 0 0 0 7.207-.17 9.374 9.374 0 0 0 2.855-2.361"/><path stroke="#000" stroke-linecap="round" stroke-linejoin="round" stroke-width="2" d="M201.22 392.917a15.446 15.446 0 0 0 2.27-5.082c.527-1.805.755-4.219-.896-5.115-1.26-.682-2.88.077-3.756 1.205-1.853 2.386-1.219 6.18 1.08 8.136.398.335.835.623 1.302.856Zm-7.593 1.451c.672.53 1.465.885 2.308 1.036 1.931.31 3.881-.76 5.12-2.274.058-.073.11-.141.165-.213m-7.594 1.451a9.81 9.81 0 0 1-2.719 4.463c-2.488 2.26-6.626 2.802-9.239.682a6.004 6.004 0 0 1-1.229-7.975 6.003 6.003 0 0 1 7.82-1.99c2.105 1.118 3.509 3.446 5.367 4.82Zm-7.278-31.079a24.14 24.14 0 0 0 .944 7.477c.943 3.228 2.54 6.219 3.963 9.268 1.423 3.049 2.691 6.243 2.904 9.596a13.27 13.27 0 0 1-.532 4.738"/><path stroke="#000" stroke-linecap="round" stroke-linejoin="round" stroke-width="2" d="M186.347 363.289a12.443 12.443 0 0 0 11.552-.855 12.432 12.432 0 0 0 5.837-10.005c.15-3.219-1.467-6.904-4.612-7.589-2.885-.629-5.648 1.49-7.487 3.799a24.836 24.836 0 0 0-5.29 14.65Z"/><path stroke="#000" stroke-linecap="round" stroke-linejoin="round" stroke-width="2" d="M182.709 360.956a11.91 11.91 0 0 0 3.639 2.333m-83.158 26.844c-.383 6.021-.764 12.04-1.143 18.057-.063.483-.028.973.102 1.442a2.43 2.43 0 0 0 1.515 1.37 7.202 7.202 0 0 0 2.082.31c.9.043 1.979-.006 2.444-.774.174-.348.265-.731.266-1.119.146-1.848.293-3.697.438-5.546"/><path stroke="#000" stroke-linecap="round" stroke-linejoin="round" stroke-width="2" d="M108.445 403.91a5.048 5.048 0 0 1 4.91.87 5.061 5.061 0 0 1 1.827 4.21c-.055.833-.257 1.816.363 2.377.4.286.883.432 1.374.416 5.838.406 11.678.814 17.519 1.224 1.119.077 2.406.092 3.151-.745a2.377 2.377 0 0 0 0-2.874 4.69 4.69 0 0 0-2.569-1.644c-.993-.3-2.028-.438-3.014-.755-3.053-.978-5.369-3.596-6.664-6.528-1.295-2.932-1.689-6.18-1.931-9.374m-73.737-11.349c-2.42 4.645-4.84 9.293-7.26 13.943a3.33 3.33 0 0 0-.377.959 2.257 2.257 0 0 0 1.205 2.183 6.67 6.67 0 0 0 2.546.687c.804-1.98 1.605-3.957 2.405-5.934.024-.055.043-.109.068-.164"/><path stroke="#000" stroke-linecap="round" stroke-linejoin="round" stroke-width="2" d="M48.004 391.498c.063.029.125.055.189.078 1.107.464 2.285.74 3.484.818a25.196 25.196 0 0 0 .237 6.102 8.486 8.486 0 0 0 2.996 5.184c1.795 1.35 4.138 1.635 6.32 2.154 4.695 1.112 9.307 3.484 14.079 2.797-1.644-2.396-4.627-3.567-6.388-5.876-1.937-2.541-2.067-6.102-1.123-9.15.944-3.047 2.817-5.716 4.665-8.319m-7.206-92.258s-5.14-1.35-14.51-2.952c-5.88-1.007-13.423-2.11-22.409-3.044m125.981 53.148-.038-.038c-15.758-15.352-20.361-17.394-20.361-17.394m-6.828 68.151s10.057 4.936 24.556 5.885a.109.109 0 0 0 .044.005"/><path stroke="#000" stroke-linecap="round" stroke-linejoin="round" stroke-width="2" d="M28.34 287.032c-2.966 22.465 7.163 44.185 23.08 60.31m13.667-73.788c-7.89.46-14.175.125-21.862-1.708m104.44 11.585c-12.026-6.456-22.625-7.826-22.625-7.826m-82.089-3.412a25.895 25.895 0 0 0 7.932 17.095c-.247-.164-.493-.333-.745-.498"/><path stroke="#000" stroke-miterlimit="10" stroke-width="2" d="m139.376 90.903 6.246-1.714a.473.473 0 0 1 .512.18.48.48 0 0 1 .007.543l-3.633 5.365a.474.474 0 0 0-.004.527l3.562 5.413a.472.472 0 0 1-.015.542.476.476 0 0 1-.513.175l-6.225-1.798a.475.475 0 0 0-.503.16l-4.048 5.06a.479.479 0 0 1-.52.154.478.478 0 0 1-.325-.435l-.214-6.475a.48.48 0 0 0-.308-.429l-6.062-2.286a.465.465 0 0 1-.223-.175.478.478 0 0 1 .229-.716l6.092-2.204a.471.471 0 0 0 .313-.425l.301-6.472a.47.47 0 0 1 .331-.43.474.474 0 0 1 .518.16l3.979 5.113a.479.479 0 0 0 .503.167Z"/><path fill="#000" d="m18.43 218.265 5.095-1.64a.393.393 0 0 1 .455.579l-2.807 4.561a.39.39 0 0 0 .017.435l3.134 4.34a.393.393 0 0 1-.41.611l-5.206-1.26a.392.392 0 0 0-.409.15l-3.16 4.322a.391.391 0 0 1-.707-.201l-.41-5.339a.39.39 0 0 0-.27-.343l-5.087-1.669a.393.393 0 0 1-.027-.735l4.95-2.039a.394.394 0 0 0 .244-.362l.015-5.355a.389.389 0 0 1 .258-.366.392.392 0 0 1 .434.113l3.47 4.078a.394.394 0 0 0 .42.12Z"/><path stroke="#000" stroke-miterlimit="10" stroke-opacity=".15" stroke-width="2" d="m425.437 127.051 6.249-1.714a.473.473 0 0 1 .519.724l-3.633 5.364a.47.47 0 0 0-.004.527l3.562 5.413a.478.478 0 0 1-.528.718l-6.225-1.798a.48.48 0 0 0-.276.003.485.485 0 0 0-.227.156l-4.048 5.06a.477.477 0 0 1-.75-.013.471.471 0 0 1-.095-.268l-.214-6.476a.47.47 0 0 0-.307-.428l-6.064-2.285a.483.483 0 0 1-.307-.448.48.48 0 0 1 .087-.271.483.483 0 0 1 .227-.172l6.092-2.205a.471.471 0 0 0 .313-.424l.3-6.472a.474.474 0 0 1 .85-.27l3.979 5.113a.473.473 0 0 0 .5.166Z"/><path stroke="#000" stroke-linecap="round" stroke-linejoin="round" stroke-width="2" d="m135.118 127.684-9.736-11.274m.259 10.921 6.041-9.803"/><path stroke="#000" stroke-linecap="round" stroke-linejoin="round" stroke-opacity=".15" stroke-width="2" d="m164.325 94.649 6.531-10.84m.496 10.719-9.178-10.8m-125.1 172.744-10.76-9.223m1.994 10.733c2.055-4.097 4.11-8.194 6.163-12.291"/><path stroke="#000" stroke-linecap="round" stroke-linejoin="round" stroke-width="2" d="m37.074 351.272-9.736-9.737m1.605 9.271 6.127-8.726"/><path stroke="#000" stroke-linecap="round" stroke-linejoin="round" stroke-opacity=".15" stroke-width="2" d="m473.392 229.685-6.801-11.706m-.661 10.775 7.697-7.163"/><path stroke="#000" stroke-linecap="round" stroke-linejoin="round" stroke-width="2" d="m469.152 164.658-6.182-7.144m.411 6.691 4.609-4.611m-61.457 6.179-4.612-7.686m-.925 6.778 7.154-6.173M153.886 368.417l-12.634-7.786c-.199-.122-.279-.379-.471-.511-.192-.132-.558.089-.396.257m-80.23-39.835A89.8 89.8 0 0 1 39.3 300.565m12.854-21.306a39.61 39.61 0 0 0 13.677 5.661m63.78 13.427a159.892 159.892 0 0 1 21.692 13.14"/><path stroke="#000" stroke-linecap="round" stroke-linejoin="round" stroke-opacity=".15" stroke-width="2" d="M383.563 363.919a497.611 497.611 0 0 0 54.842-103.991"/><path stroke="#000" stroke-linecap="round" stroke-linejoin="round" stroke-opacity=".15" stroke-width="2" d="M421.906 296.783a88.398 88.398 0 0 0-2.052-17.764m2.618 18.287c4-2.92 8.607-4.9 13.479-5.79m-34.47 44.033c-.312-6.367-1.017-13.94-1.329-20.307m1.329 20.307 19.462-8.562M64.308 145.886c-1.352-.648-3.058.01-3.994 1.181-.937 1.17-1.245 2.722-1.338 4.219-.372 5.972 2.183 11.678 4.407 17.232 2.223 5.554 4.186 11.655 2.616 17.427-.95 3.495-3.143 6.553-5.768 9.048-2.624 2.496-5.681 4.484-8.736 6.43"/><path fill="#000" d="M399.4 203.721c-4.323 2.292-8.076 5.6-12.199 8.188a45.76 45.76 0 0 0-6.107 4.815c-1.914 1.742-3.896 3.327-5.568 5.311a127.695 127.695 0 0 0-16.701 25.938c-1.329 2.699-.728 6.027 1.999 7.626 2.453 1.434 6.296.712 7.625-2a155.094 155.094 0 0 1 15.342-24.614c2.83-3.783 5.507-7.823 8.103-11.772 1.388-2.111 2.57-4.024 4.375-5.853 1.689-1.709 3.36-3.495 4.902-5.34a1.466 1.466 0 0 0-.766-2.45 1.472 1.472 0 0 0-1.008.149l.003.002ZM27.513 288.316a67.986 67.986 0 0 0 .435 14.653c.658 5.045 1.121 10.297 2.843 15.107 3.51 9.808 9.501 18.684 16.421 26.396 2.086 2.323 6.05 2.122 8.173 0 2.316-2.316 2.082-5.836 0-8.172-6.122-6.87-10.613-14.685-14.709-22.875-1.998-3.994-4.285-7.616-5.784-11.841a125.648 125.648 0 0 1-3.847-13.746c-.487-2.092-3.36-1.436-3.532.478Zm107.589 105.495c4.179.586 7.935 2.493 12.066 2.983 5.851.695 6.16-9.469 0-9.35-2.014.039-3.68.686-5.606 1.088a35.567 35.567 0 0 1-5.837.674c-2.492.102-3.362 4.219-.623 4.603v.002ZM42.88 273.122c-.014.729-.293 1.309-.202 2.086a8.326 8.326 0 0 0 1.379 3.272c1.229 2.031 2.765 3.759 4.196 5.635 1.4 1.834 2.46 3.663 4.274 5.168a33.42 33.42 0 0 0 6.606 4.129c5.827 2.866 9.579-5.76 3.483-8.262a37.964 37.964 0 0 1-4.887-2.609c-1.629-.966-3.603-1.68-5.118-2.784-1.54-1.122-2.894-2.914-4.055-4.393a19.6 19.6 0 0 0-1.424-1.87c-.76-.759-1.602-.85-2.437-1.414a1.222 1.222 0 0 0-1.205.003 1.211 1.211 0 0 0-.612 1.038l.002.001Zm91.276 49.731c2.52 2.035 5.138 4.141 7.485 6.383 2.441 2.331 4.298 5.008 6.484 7.546 3.439 3.994 9.274-1.096 7.019-5.415-3.48-6.667-10.532-12.127-17.512-14.485-3.258-1.1-6.27 3.718-3.476 5.972v-.001Z" opacity=".1"/></g></g></g><defs><clipPath id="a"><path fill="#fff" d="M0 0h500v500H0z"/></clipPath></defs></svg>